<?xml version="1.0" encoding="UTF-8" standalone="no"?>
<!DOCTYPE svg PUBLIC "-//W3C//DTD SVG 1.1//EN" "http://www.w3.org/Graphics/SVG/1.1/DTD/svg11.dtd">
<svg width="100%" height="100%" viewBox="0 0 750 500" version="1.1" xmlns="http://www.w3.org/2000/svg" xmlns:xlink="http://www.w3.org/1999/xlink" xml:space="preserve" xmlns:serif="http://www.serif.com/" style="fill-rule:evenodd;clip-rule:evenodd;stroke-linejoin:round;stroke-miterlimit:2;">
    <g id="BACKGROUND">
        <rect x="0.001" y="0" width="749.999" height="500" style="fill:white;"/>
    </g>
    <g id="OBJECTS">
        <g transform="matrix(1,0,0,1,802.603,423.84)">
            <path d="M0,86.804C-28.202,94.065 -59.121,90.158 -84.632,76.112C-110.142,62.065 -129.975,38.026 -138.918,10.311C-141.565,2.107 -142.631,-8.413 -135.832,-13.713C-128.322,-19.566 -117.663,-14.587 -108.801,-11.103C-96.624,-6.317 -83.196,-4.758 -70.247,-6.627C-60.702,-8.004 -51.236,-11.21 -41.645,-10.209C-27.269,-8.709 -15.44,2.026 -7.372,14.018C3.651,30.401 9.656,51.04 4.941,70.215C0.227,89.39 -16.881,105.966 -36.623,106.37" style="fill:url(#_Linear1);fill-rule:nonzero;"/>
        </g>
        <g transform="matrix(1,0,0,1,-34.812,531.578)">
            <path d="M0,-185.035C3.743,-194.71 15.623,-198.258 25.988,-198.672C55.037,-199.831 83.501,-186.065 103.787,-165.241C124.072,-144.417 136.761,-117.111 143.918,-88.934C147.362,-75.371 149.616,-61.342 148.473,-47.394C147.328,-33.447 142.574,-19.514 133.336,-9.003C115.887,10.85 85.037,14.796 60.198,5.76C35.359,-3.276 15.82,-22.999 0.39,-44.458C-15.908,-67.122 -28.761,-92.871 -32.681,-120.511C-36.601,-148.15 -30.835,-177.848 -13.357,-199.616" style="fill:rgb(22,32,35);fill-rule:nonzero;"/>
        </g>
        <g transform="matrix(1,0,0,1,-22.8023,459.628)">
            <path d="M0,-320.844C-3.542,-334.244 -7.116,-348.029 -5.527,-361.798C-3.938,-375.568 4.018,-389.517 17.104,-394.084C28.519,-398.069 41.468,-394.144 51.269,-387.066C61.07,-379.988 68.402,-370.1 75.879,-360.599C131.271,-290.208 202.381,-233.542 277.765,-185.163C353.148,-136.784 433.182,-96.18 511.812,-53.278C540.62,-37.559 569.673,-21.211 592.771,2.102C608.655,18.134 621.551,44.016 608.15,62.175C597.043,77.225 574.946,77.208 556.301,75.718C494.939,70.814 433.577,65.911 372.216,61.008C351.578,59.358 330.271,57.519 312.008,47.764C286.611,34.199 271.34,7.818 254.547,-15.572C227.58,-53.134 193.677,-85.699 155.061,-111.135C134.917,-124.403 112.911,-136.282 98.602,-155.7C84.292,-175.118 80.637,-205.209 98.045,-221.906C42.194,-226.561 -4.751,-280.698 -1.451,-336.645" style="fill:url(#_Linear2);fill-rule:nonzero;"/>
        </g>
        <g transform="matrix(1,0,0,1,31.3208,556.061)">
            <path d="M0,-357.847C-9.214,-358.742 -18.065,-352.613 -22.676,-344.585C-27.286,-336.559 -28.345,-326.981 -28.304,-317.724C-28.115,-275.417 -7.221,-235.893 17.614,-201.643C42.45,-167.393 71.812,-136.287 93.054,-99.7C110.644,-69.402 124.421,-33.578 155.238,-16.915C188.177,0.895 232.488,-11.577 255.977,-40.741C279.465,-69.904 283.428,-111.765 271.677,-147.319C259.926,-182.872 234.204,-212.51 204.294,-235.039" style="fill:url(#_Linear3);fill-rule:nonzero;"/>
        </g>
        <g transform="matrix(1,0,0,1,285.52,208.72)">
            <path d="M0,-141.02C22.854,-106.524 64.438,-85.316 105.779,-87.071C153.069,-89.079 195.905,-118.476 243.187,-120.682C278.683,-122.338 314.611,-107.5 338.595,-81.28C361.099,-56.676 372.447,-24.172 383.644,7.234C394.84,38.64 407.122,70.99 430.858,94.406C454.595,117.822 493.12,129.669 522.066,113.123C546.192,99.332 557.188,70.567 562.979,43.389C572.348,-0.58 572.725,-46.803 560.993,-90.201C549.261,-133.598 525.068,-174.014 490.319,-202.535C457.233,-229.689 415.895,-245.282 373.887,-253.488C331.879,-261.694 288.863,-262.922 246.078,-264.126C230.995,-264.551 215.912,-264.975 200.828,-265.399C185.801,-265.822 170.773,-266.245 155.745,-266.668C140.718,-267.091 125.69,-267.514 110.662,-267.936L65.413,-269.209C51.232,-269.608 36.883,-270.689 22.702,-270.269C14.626,-270.03 6.262,-268.591 -0.659,-264.188C-6.666,-260.367 -10.863,-254.54 -13.551,-248.022C-16.878,-239.956 -18.197,-231.139 -19.006,-222.504C-20.166,-210.121 -19.946,-197.725 -17.706,-185.468C-15.368,-172.686 -11.035,-160.254 -4.755,-148.872C-4.016,-147.533 -3.25,-146.207 -2.458,-144.899C-1.949,-144.058 0,-141.951 0,-141.02" style="fill:rgb(22,32,35);fill-rule:nonzero;"/>
        </g>
        <g transform="matrix(1,0,0,1,-56.3257,609.651)">
            <path d="M0,-649.709C45.634,-648.501 83.973,-614.648 110.621,-577.584C137.27,-540.519 156.99,-498.127 188.99,-465.571C244.006,-409.599 325.576,-391.499 401.519,-371.693C477.461,-351.888 558.653,-323.217 600.187,-256.626C621.903,-221.806 631.22,-178.571 661.039,-150.378C679.524,-132.902 703.86,-123.292 727.359,-113.547C750.858,-103.804 774.924,-92.982 791.786,-73.935C808.648,-54.887 816.304,-25.325 803.096,-3.583C753.951,8.658 698.655,-8.395 664.94,-46.189C634.618,-80.181 620.938,-128.737 583.791,-155.099C548.31,-180.279 499.891,-178.911 462.044,-200.372C417.176,-225.814 394.456,-278.794 351.973,-308.044C306.545,-339.322 244.396,-339.503 200.907,-373.421C153.828,-410.14 139.817,-477.6 93.694,-515.513C76.071,-530 54.834,-539.214 34.886,-550.286C14.938,-561.356 -4.637,-575.21 -15.286,-595.386C-25.937,-615.561 -24.989,-643.354 -7.812,-658.367" style="fill:rgb(22,32,35);fill-rule:nonzero;"/>
        </g>
        <g transform="matrix(1,0,0,1,43.5991,468.068)">
            <path d="M0,-551.031C39.831,-449.32 129.396,-368.467 234.638,-339.216C303.981,-319.943 380.155,-321.418 443.026,-286.386C495.204,-257.312 531.882,-205.921 555.533,-151.072C571.028,-115.135 584.321,-73.895 618.433,-54.712C663.14,-29.57 725.586,-53.598 766.869,-23.158C778.278,-14.746 786.759,-2.901 797.95,5.8C809.142,14.5 825.209,19.672 837.387,12.417C847.356,6.477 851.626,-6.564 849.432,-17.959C847.237,-29.355 839.616,-39.1 830.542,-46.333C778.463,-87.849 693.479,-51.324 639.167,-89.873C615.148,-106.922 602.257,-135.626 594.344,-163.998C586.43,-192.369 582.31,-221.977 570.548,-248.981C549.594,-297.091 503.722,-333.514 452.114,-343.019C398.575,-352.88 342.908,-343.712 290.358,-357.933C244.136,-370.442 207.146,-397.169 173.195,-430.939C141.774,-462.192 110.354,-493.445 78.934,-524.698C64.21,-539.344 49.001,-554.323 29.917,-562.513C10.833,-570.703 -13.293,-570.635 -28.814,-556.838" style="fill:rgb(22,32,35);fill-rule:nonzero;"/>
        </g>
        <g transform="matrix(1,0,0,1,-35.7446,528.698)">
            <path d="M0,-617.663C21.5,-532.525 69.723,-454.341 136.153,-396.917C202.585,-339.493 286.922,-303.088 374.274,-294.131C437.801,-287.618 506.78,-290.133 556.369,-249.897C598.932,-215.362 614.171,-160.375 641.572,-112.906C691.668,-26.123 796.526,25.565 895.867,12.446C820.139,-4.291 750.881,-48.83 704.234,-110.79C668.935,-157.681 646.877,-213.013 617.021,-263.545C587.167,-314.077 546.062,-362.198 490.002,-379.577C446.19,-393.158 399.1,-386.295 353.297,-383.835C307.495,-381.375 257.675,-384.849 222.523,-414.317C178.71,-451.046 171.372,-515.991 136.194,-561.061C91.842,-617.887 13.399,-632.558 -57.892,-643.228" style="fill:url(#_Linear4);fill-rule:nonzero;"/>
        </g>
        <g transform="matrix(1,0,0,1,121.335,353.767)">
            <path d="M0,-454.755C16.085,-391.417 53.441,-333.678 104.624,-293.047C155.806,-252.416 220.514,-229.131 285.85,-227.834C326.73,-227.023 368.279,-234.482 408.156,-225.443C445.333,-217.016 478.971,-193.899 500.162,-162.212C530.193,-117.308 537.059,-55.523 580.521,-23.442C606.914,-3.96 642.444,0 674.562,-6.671C706.681,-13.342 735.982,-29.604 763.382,-47.641C737.937,-19.918 692.26,-18.824 659.169,-36.742C626.079,-54.659 603.612,-87.346 586.597,-120.909C569.581,-154.472 556.618,-190.248 535.9,-221.66C515.182,-253.073 484.629,-280.606 447.448,-286.403C388.577,-295.584 335.234,-249.394 276.041,-242.594C225.705,-236.813 169.402,-267.946 160.307,-317.791C156.541,-338.426 160.769,-360.133 155.225,-380.363C147.486,-408.6 121.58,-428.941 93.738,-438.001C65.896,-447.06 35.993,-446.712 6.718,-446.273" style="fill:url(#_Linear5);fill-rule:nonzero;"/>
        </g>
        <g transform="matrix(1,0,0,1,-98.3013,598.959)">
            <path d="M0,-586.368C19.947,-553.376 56.72,-535.189 91.14,-517.821C125.561,-500.454 161.744,-479.974 178.236,-445.126C192.057,-415.923 189.429,-381.906 195.823,-350.236C204.537,-307.078 231.102,-267.807 267.917,-243.657C330.996,-202.279 419.09,-205.06 472.858,-152.146C514.641,-111.027 522.758,-40.051 491.339,9.44C493.45,-12.854 479.482,-34.333 460.932,-46.878C442.381,-59.422 419.878,-64.538 397.774,-68.138C375.672,-71.736 353.119,-74.131 332.206,-82.139C290.069,-98.272 257.957,-138.127 251.153,-182.73C249.197,-195.556 249.121,-208.923 244.031,-220.856C225.586,-264.104 153.95,-265.991 140.297,-310.982C129.524,-346.48 163.977,-381.229 162.087,-418.277C160.648,-446.485 138.297,-469.393 114.057,-483.889C89.816,-498.386 62.405,-507.437 39.526,-523.999C16.647,-540.56 -1.746,-568.196 4.195,-595.808" style="fill:url(#_Linear6);fill-rule:nonzero;"/>
        </g>
        <g transform="matrix(1,0,0,1,287.613,168.273)">
            <path d="M0,-158.284C3.235,-129.142 16.855,-100.063 41.154,-83.653C61.517,-69.901 87.356,-66.249 111.817,-68.572C145.518,-71.772 177.227,-85.355 208.438,-98.463C239.649,-111.57 271.729,-124.54 305.53,-126.396C339.331,-128.254 375.713,-117.043 395.855,-89.836C426.584,-48.331 411.08,15.177 442.729,55.984C466.61,86.776 512.768,94.463 548.987,80.091C585.208,65.719 611.858,33.204 627.486,-2.492C644.853,-42.157 650.029,-88.695 633.68,-128.79C612.341,-181.118 557.082,-214.269 500.984,-221.088C444.886,-227.906 388.263,-212.019 336.605,-189.109C301.101,-173.363 267.031,-154.223 230.4,-141.313C193.771,-128.403 153.433,-121.984 116.07,-132.591C78.708,-143.197 45.371,-173.698 39.88,-212.146C38.495,-221.846 38.811,-232.292 34.292,-241.244C32.006,-245.772 28.606,-249.157 23.751,-250.817C20.413,-251.959 15.791,-252.747 12.559,-250.839C7.106,-247.618 7.889,-237.913 7.163,-232.568C6.446,-227.285 4.97,-222.138 3.88,-216.927C2.64,-210.998 1.589,-205.029 0.792,-199.024C-0.802,-187.027 -1.38,-174.869 -0.428,-162.794C-0.309,-161.288 -0.166,-159.785 0,-158.284" style="fill:white;fill-rule:nonzero;"/>
        </g>
        <g transform="matrix(1,0,0,1,213.135,477.058)">
            <path d="M0,-113.929C-38.824,-129.365 -71.831,-158.976 -91.375,-195.904C-93.836,-200.554 -96.152,-205.742 -95.142,-210.905C-93.402,-219.783 -82.4,-224.023 -73.538,-222.207C-64.677,-220.393 -57.33,-214.475 -49.702,-209.612C-13.343,-186.433 34.192,-185.313 69.31,-160.289C95.169,-141.863 111.142,-112.667 134.439,-91.092C164.079,-63.646 203.573,-50.152 239.725,-32.125C275.876,-14.098 311.941,12.326 322.461,51.328C326.436,66.064 325.913,83.218 316.043,94.861C303.128,110.094 278.195,110.059 261.334,99.355C244.474,88.652 234.308,70.077 227.062,51.467C219.815,32.856 214.676,13.243 204.463,-3.919C182.124,-41.458 139.37,-61.406 97.955,-75.297C56.54,-89.189 12.636,-99.866 -21.741,-126.818" style="fill:white;fill-rule:nonzero;"/>
        </g>
        <g transform="matrix(1,0,0,1,-54.1157,546.08)">
            <path d="M0,-431.027C24.309,-431.86 49.379,-426.346 69.118,-412.134C88.857,-397.923 102.485,-374.3 101.371,-350.003C100.58,-332.744 92.807,-316.715 86.602,-300.591C80.397,-284.467 75.652,-266.53 81.017,-250.107C88.979,-225.735 115.357,-213.695 136.288,-198.885C185.911,-163.776 212.324,-98.64 201.169,-38.884C199.126,-27.94 195.387,-16.394 186.369,-9.865C171.594,0.833 149.242,-7.896 139.381,-23.242C129.519,-38.589 128.875,-57.925 129.128,-76.165C129.381,-94.405 130.061,-113.452 122.251,-129.937C109.489,-156.875 78.435,-169.016 56.53,-189.233C27.608,-215.928 15.277,-259.279 25.819,-297.2C30.318,-313.382 38.646,-328.769 39.369,-345.549C40.12,-362.978 32.39,-379.921 21.464,-393.519C10.538,-407.118 -3.451,-417.869 -17.296,-428.481" style="fill:white;fill-rule:nonzero;"/>
        </g>
        <g transform="matrix(1,0,0,1,37.4624,480.769)">
            <path d="M0,-78.825C16.704,-55.972 24.435,-26.737 21.209,1.385C20.107,10.991 17.622,20.781 11.615,28.36C5.609,35.938 -4.562,40.805 -13.911,38.334C-23.778,35.728 -30.237,25.772 -32.079,15.735C-33.921,5.696 -32.104,-4.597 -30.79,-14.719C-29.476,-24.839 -28.725,-35.467 -32.517,-44.941C-36.59,-55.123 -45.345,-62.6 -54.077,-69.234C-63.076,-76.071 -72.977,-82.834 -78.716,-92.861C-82.669,-99.768 -84.296,-108.495 -77.398,-114.092C-71.354,-118.998 -62.45,-119.63 -55.059,-118.42C-44.969,-116.767 -35.403,-110.883 -27.122,-105.153C-17.874,-98.756 -9.549,-91.013 -2.565,-82.195C-1.689,-81.089 -0.834,-79.965 0,-78.825" style="fill:url(#_Linear7);fill-rule:nonzero;"/>
        </g>
        <g transform="matrix(1,0,0,1,436.861,515.204)">
            <path d="M0,-213.356C29.8,-199.276 59.346,-182.002 78.832,-155.42C96.342,-131.538 104.521,-101.739 122.564,-78.257C149.8,-42.812 194.83,-27.063 231.731,-1.836C240.616,4.237 249.35,11.221 254.298,20.779C259.245,30.335 259.494,43.047 252.309,51.058C246.618,57.402 237.334,59.634 228.897,58.44C220.46,57.247 212.734,53.063 205.703,48.248C176.43,28.204 156.933,-2.808 137.106,-32.231C117.281,-61.654 95,-91.465 63.019,-106.828C28.978,-123.179 -14.145,-122.225 -41.058,-148.718C-55.723,-163.154 -63.032,-183.68 -77.259,-198.548C-101.02,-223.379 -139.108,-227.946 -167.091,-247.899C-172.674,-251.879 -178.375,-258.509 -175.671,-264.812C-172.679,-271.785 -160.997,-272.99 -153.445,-272.247C-136.757,-270.605 -130.284,-270.13 -118.153,-267.46C-108.148,-265.256 -74.204,-249.191 -67.137,-245.252C-56.936,-239.566 -46.403,-234.505 -35.792,-229.639C-25.199,-224.782 -14.519,-220.118 -3.95,-215.207C-2.632,-214.594 -1.314,-213.977 0,-213.356" style="fill:url(#_Linear8);fill-rule:nonzero;"/>
        </g>
        <g transform="matrix(1,0,0,1,567.294,137.15)">
            <path d="M0,-107.718C28.98,-116.022 60.226,-119.724 89.165,-111.278C118.104,-102.831 144.191,-80.384 150.715,-50.95C153.151,-39.956 152.84,-28.572 153.306,-17.32C153.771,-6.068 155.128,5.486 160.513,15.377C165.896,25.267 176.113,33.211 187.372,32.999C196.705,32.824 205.165,27.213 211.519,20.375C232.192,-1.875 234.123,-37.543 220.778,-64.826C207.435,-92.111 181.231,-111.468 152.859,-122.306C104.11,-140.929 46.847,-136.364 1.997,-109.682L0,-107.718Z" style="fill:url(#_Linear9);fill-rule:nonzero;"/>
        </g>
        <g transform="matrix(1,0,0,1,299.139,52.3153)">
            <path d="M0,-38.151C-2.039,-44.929 -4.101,-51.992 -2.991,-58.983C-1.881,-65.974 3.406,-72.844 10.471,-73.299C18.316,-73.805 24.445,-66.706 28.247,-59.824C34.547,-48.418 38.371,-35.631 45.958,-25.038C58.782,-7.131 80.994,2.193 102.917,4.318C124.839,6.443 146.833,2.259 168.429,-2.072C171.896,-2.767 176.896,-2.411 177.199,1.112C177.381,3.228 175.498,4.89 173.771,6.125C144.322,27.2 106.147,35.654 70.555,28.983C48.317,24.816 26.625,14.506 12.186,-2.911C-2.254,-20.327 -8.31,-45.419 0.084,-66.428" style="fill:url(#_Linear10);fill-rule:nonzero;"/>
        </g>
        <g transform="matrix(1,0,0,1,320.144,237.572)">
            <path d="M0,-26.578C44.952,-20.667 91.274,-28.125 135.551,-18.37C178.243,-8.966 217.107,16.834 242.349,52.527C226.563,22.999 205.379,-3.849 179.08,-24.571C152.781,-45.293 121.268,-59.74 88.09,-64.241C53.122,-68.985 17.731,-62.743 -17.503,-60.787C-32.757,-59.94 -48.129,-60.028 -63.294,-62.039C-78.272,-64.025 -93.115,-67.948 -106.588,-74.902C-108.205,-75.736 -112.642,-79.105 -114.626,-77.187C-115.968,-75.892 -110.056,-72.326 -108.892,-71.442C-102.869,-66.872 -96.618,-62.602 -90.173,-58.649C-77.28,-50.743 -63.611,-44.104 -49.429,-38.853C-35.248,-33.603 -20.551,-29.741 -5.613,-27.39C-3.745,-27.096 -1.874,-26.825 0,-26.578" style="fill:rgb(22,32,35);fill-rule:nonzero;"/>
        </g>
        <g transform="matrix(1,0,0,1,90.9126,-32.1271)">
            <path d="M0,118.308C6.668,123.542 15.663,128.468 23.171,124.531C28.413,121.782 30.877,115.37 30.645,109.455C30.412,103.54 27.986,97.961 25.6,92.544C17.54,74.254 9.438,55.884 -1.266,39.005C-11.969,22.125 -25.463,6.663 -42.445,-3.876C-47.582,-7.063 -53.841,-10.16 -60.016,-8.347C-64.313,-7.086 -67.69,-4.125 -66.821,0.553C-65.915,5.435 -64.667,10.321 -63.658,15.196C-62.5,20.787 -61.063,26.323 -59.361,31.774C-55.982,42.597 -51.558,53.093 -46.192,63.081C-40.805,73.109 -34.468,82.627 -27.279,91.454C-20.095,100.278 -12.059,108.412 -3.286,115.661C-2.202,116.557 -1.106,117.439 0,118.308" style="fill:rgb(22,32,35);fill-rule:nonzero;"/>
        </g>
        <g transform="matrix(1,0,0,1,348.342,267.897)">
            <path d="M0,7.35C1.443,8.573 2.947,10.087 2.951,11.979C2.954,13.695 1.643,15.198 0.086,15.917C-1.472,16.636 -3.239,16.72 -4.954,16.733C-20.135,16.846 -35.318,12.269 -47.906,3.783C-51.322,1.481 -54.789,-2.22 -52.339,-6.549C-50.671,-9.496 -46.704,-9.233 -43.792,-9.144C-33.63,-8.835 -23.636,-6.484 -14.476,-2.045C-9.286,0.471 -4.402,3.622 0,7.35" style="fill:rgb(22,32,35);fill-rule:nonzero;"/>
        </g>
        <g transform="matrix(1,0,0,1,485.913,329.94)">
            <path d="M0,23.154C5.831,28.744 11.773,36.654 8.793,44.162C5.515,52.419 -5.731,53.388 -14.515,52.053C-52.691,46.254 -87.577,21.767 -106.007,-12.166C-108.223,-16.246 -110.521,-21.356 -107.997,-25.827C-106.278,-28.872 -103.932,-30.234 -100.497,-29.697C-91.569,-28.301 -82.604,-25.349 -74.105,-22.35C-65.305,-19.243 -56.715,-15.54 -48.412,-11.28C-40.108,-7.018 -32.092,-2.199 -24.437,3.139C-16.744,8.505 -9.416,14.393 -2.535,20.765C-1.683,21.554 -0.838,22.35 0,23.154" style="fill:rgb(22,32,35);fill-rule:nonzero;"/>
        </g>
        <g transform="matrix(-0.803894,-0.594772,-0.594772,0.803894,504.003,392.244)">
            <path d="M-5.154,-15.634C-10.473,-15.634 -14.787,-11.754 -14.787,-6.968C-14.787,-2.181 -10.475,1.699 -5.154,1.7C0.166,1.699 4.478,-2.181 4.479,-6.969C4.479,-11.754 0.166,-15.634 -5.154,-15.634" style="fill:rgb(22,32,35);fill-rule:nonzero;"/>
        </g>
        <g transform="matrix(-0.962873,-0.269955,-0.269955,0.962873,267.786,361.111)">
            <path d="M-2.339,-17.011C-7.659,-17.01 -11.971,-13.131 -11.972,-8.344C-11.972,-3.558 -7.658,0.323 -2.339,0.322C2.982,0.323 7.293,-3.557 7.294,-8.345C7.294,-13.13 2.981,-17.012 -2.339,-17.011" style="fill:url(#_Linear11);fill-rule:nonzero;"/>
        </g>
        <g transform="matrix(-0.887057,-0.461661,-0.461661,0.887057,297.193,373.879)">
            <path d="M-2.998,-12.255C-6.984,-12.255 -10.217,-9.348 -10.217,-5.76C-10.216,-2.175 -6.984,0.733 -2.998,0.733C0.988,0.734 4.221,-2.174 4.219,-5.761C4.22,-9.348 0.988,-12.255 -2.998,-12.255" style="fill:url(#_Linear12);fill-rule:nonzero;"/>
        </g>
        <g transform="matrix(-0.887081,-0.461614,-0.461614,0.887081,334.908,395.033)">
            <path d="M-1.781,-7.282C-4.15,-7.281 -6.071,-5.553 -6.07,-3.422C-6.071,-1.29 -4.149,0.437 -1.781,0.437C0.588,0.437 2.508,-1.291 2.508,-3.423C2.509,-5.553 0.588,-7.282 -1.781,-7.282" style="fill:url(#_Linear13);fill-rule:nonzero;"/>
        </g>
        <g transform="matrix(1,0,0,1,133.74,94.2857)">
            <path d="M0,-60.348C4.417,-23.292 27.098,10.329 57.579,31.858C88.06,53.386 125.691,63.461 162.996,64.443C186.588,65.065 211.331,61.81 230.706,48.335C124.856,32.077 27.618,-33.427 -27.218,-125.413C-10.164,-74.51 7.497,-22.463 40.878,19.58" style="fill:white;fill-rule:nonzero;"/>
        </g>
        <g transform="matrix(1,0,0,1,437.316,528.819)">
            <path d="M0,-287.866C38.059,-280.261 75.463,-264.894 103.546,-238.105C136.153,-207.001 153.431,-163.661 176.283,-124.821C207.681,-71.458 250.964,-25.134 302.075,9.81C241.411,-16.332 177.595,-44.973 139.759,-99.121C121.706,-124.957 110.724,-155.19 92.715,-181.056C69.918,-213.801 36.7,-238.183 1.019,-256.035C-11.645,-262.371 -24.674,-267.955 -37.89,-273.031C-51.077,-278.097 -119.586,-295.878 -119.08,-296.781C-118.578,-297.676 -93.489,-295.942 -92.33,-295.923C-77.662,-295.675 -62.992,-295.217 -48.358,-294.154C-33.815,-293.098 -19.304,-291.445 -4.957,-288.815C-3.302,-288.512 -1.649,-288.196 0,-287.866" style="fill:white;fill-rule:nonzero;"/>
        </g>
        <g transform="matrix(1,0,0,1,646.754,308.641)">
            <path d="M0,-92.859C18.765,-56.061 25.002,-11.013 55.765,16.552C79.673,37.976 113.269,43.909 144.97,48.971C138.258,71.724 115.57,87.737 91.961,90.039C68.352,92.342 44.618,82.433 26.801,66.772C8.983,51.111 -3.454,30.148 -12.688,8.296C-21.921,-13.554 -28.205,-36.511 -35.629,-59.042C-43.053,-81.571 -51.761,-103.962 -65.258,-123.469C-73.466,-135.334 -83.442,-145.957 -94.685,-154.992C-105.997,-164.085 -118.597,-171.581 -132,-177.151C-135.713,-178.694 -139.487,-180.088 -143.313,-181.329C-145.225,-181.949 -147.149,-182.53 -149.086,-183.071C-150.548,-183.48 -152.721,-183.656 -153.889,-184.669C-151.204,-185.201 -147.938,-184.767 -145.185,-184.67C-142.084,-184.559 -138.987,-184.357 -135.898,-184.067C-129.765,-183.489 -123.664,-182.56 -117.634,-181.299C-105.639,-178.792 -93.923,-174.968 -82.73,-169.982C-71.446,-164.956 -60.689,-158.746 -50.692,-151.488C-40.777,-144.289 -31.607,-136.055 -23.437,-126.922C-15.218,-117.735 -8.011,-107.635 -2.093,-96.819C-1.376,-95.509 -0.679,-94.189 0,-92.859" style="fill:white;fill-rule:nonzero;"/>
        </g>
        <g transform="matrix(1,0,0,1,550.651,171.615)">
            <path d="M0,-82.103C26.143,-79.014 50.827,-66.582 70.072,-48.62C80.946,-38.471 90.432,-26.065 93.671,-11.547C94.679,-7.031 94.065,-0.846 89.564,0.23C86.73,0.908 83.983,-0.979 81.681,-2.763C58.01,-21.109 33.828,-40.186 5.119,-48.707C-14.203,-54.44 -34.64,-55.079 -54.794,-54.932C-60.473,-54.89 -67.203,-55.016 -71.869,-58.728C-72.888,-59.539 -74.286,-60.74 -74.001,-62.197C-73.707,-63.698 -71.774,-64.628 -70.629,-65.413C-67.825,-67.332 -64.915,-69.098 -61.921,-70.705C-55.929,-73.919 -49.6,-76.498 -43.082,-78.435C-36.545,-80.379 -29.818,-81.679 -23.031,-82.337C-16.208,-82.999 -9.321,-83.011 -2.496,-82.368C-1.663,-82.29 -0.831,-82.201 0,-82.103" style="fill:url(#_Linear14);fill-rule:nonzero;"/>
        </g>
        <g transform="matrix(-0.893867,-0.448332,-0.448332,0.893867,658.009,199.376)">
            <path d="M-2.474,-9.919C-5.291,-9.962 -7.874,-7.392 -7.867,-4.575C-7.861,-1.757 -5.292,0.794 -2.474,0.806C0.344,0.817 2.925,-1.689 3.023,-4.505C3.121,-7.322 0.743,-9.99 -2.063,-10.242" style="fill:url(#_Linear15);fill-rule:nonzero;"/>
        </g>
        <g transform="matrix(1,0,0,1,212.614,-1.8048)">
            <path d="M0,26.68C-5.518,19.637 -10.644,11.872 -12.095,3.044C-14.25,-10.077 -7.021,-24.194 4.883,-30.116C16.788,-36.039 32.408,-33.287 41.572,-23.652C49.79,-15.012 52.385,-2.614 54.638,9.095C55.957,15.956 57.277,22.817 58.597,29.678C60.196,37.996 61.639,47.244 57.128,54.414C54.5,58.59 50.02,61.008 45.258,61.86C41.702,62.494 38.025,62.719 34.792,60.856C31.322,58.857 28.424,55.686 25.392,53.108C20.987,49.362 16.761,45.406 12.73,41.259C8.233,36.629 3.98,31.761 0,26.68" style="fill:url(#_Linear16);fill-rule:nonzero;"/>
        </g>
        <g transform="matrix(1,0,0,1,280.198,414.205)">
            <path d="M0,96.273C-39.052,89.461 -74.563,64.555 -94.267,30.157C-100.121,19.936 -104.592,7.054 -98.962,-3.293C-94.162,-12.115 -82.95,-16.104 -73.032,-14.526C-63.114,-12.947 -54.466,-6.748 -47.616,0.597C-38.606,10.258 -31.546,22.524 -19.61,28.187C-5.117,35.065 12.006,30.15 27.963,31.8C50.611,34.142 71.004,51.31 77.171,73.229C78.966,79.605 79.532,86.833 76.131,92.516C73.408,97.064 68.566,99.91 63.687,101.978C39.154,112.377 8.571,106.366 -10.2,87.457" style="fill:rgb(22,32,35);fill-rule:nonzero;"/>
        </g>
        <g transform="matrix(1,0,0,1,70.7514,256.502)">
            <path d="M0,40.026C-11.994,31.745 -18.836,16.564 -17.096,2.092C-16.534,-2.582 -15.081,-7.275 -12.089,-10.912C-9.098,-14.548 -4.386,-16.97 0.288,-16.398C6.379,-15.652 10.928,-10.152 12.903,-4.343C14.88,1.466 14.92,7.727 15.837,13.795C16.924,20.983 19.273,27.979 22.747,34.366C24.472,37.537 26.492,40.612 27.42,44.1C28.348,47.588 27.955,51.704 25.364,54.217C22.683,56.82 18.335,56.996 14.854,55.637C11.373,54.278 8.556,51.664 5.832,49.106C-2.547,41.238 -11.144,33.027 -15.585,22.426C-20.026,11.826 -19.181,-1.891 -10.501,-9.426" style="fill:rgb(22,32,35);fill-rule:nonzero;"/>
        </g>
        <g transform="matrix(1,0,0,1,84.1997,437.126)">
            <path d="M0,-63.392C28.139,-36.902 45.725,2.512 39.782,40.699C39.266,44.016 38.531,47.424 36.546,50.132C34.562,52.84 31.016,54.668 27.801,53.701C24.312,52.652 22.465,48.924 21.18,45.516C10.936,18.342 10.669,-12.88 -5.604,-36.932C-14.041,-49.402 -26.116,-58.849 -37.379,-68.838C-48.642,-78.829 -59.594,-90.061 -64.57,-104.27C-65.731,-107.583 -66.51,-111.389 -64.866,-114.491C-63.716,-116.662 -60.827,-118.06 -58.411,-117.446C-56.445,-116.946 -55.793,-114.194 -54.691,-112.701C-51.179,-107.941 -47.185,-103.554 -42.934,-99.447C-34.32,-91.122 -24.708,-83.935 -15.355,-76.48C-10.097,-72.288 -4.899,-68.005 0,-63.392" style="fill:url(#_Linear17);fill-rule:nonzero;"/>
        </g>
        <g transform="matrix(1,0,0,1,232.874,313.858)">
            <path d="M0,34.335C3.918,35.889 8.479,37.031 12.226,35.102C15.675,33.324 17.503,29.221 17.368,25.342C17.232,21.464 15.423,17.815 13.121,14.691C5.124,3.841 -8.671,-1.491 -22.118,-2.422C-26.081,-2.696 -30.933,-2.378 -33.015,1.624C-34.711,4.883 -31.483,8.34 -29.722,10.825C-24.979,17.518 -19.052,23.329 -12.232,27.895C-8.396,30.463 -4.292,32.633 0,34.335" style="fill:url(#_Linear18);fill-rule:nonzero;"/>
        </g>
        <g transform="matrix(1,0,0,1,730.517,189.072)">
            <path d="M0,10.191C-2.587,7.859 -4.927,5.115 -6.084,1.829C-7.241,-1.456 -7.048,-5.363 -4.935,-8.132C-1.813,-12.223 4.357,-12.609 9.231,-10.958C14.104,-9.308 18.291,-6.093 23.007,-4.037C28.584,-1.604 34.842,-0.831 40.04,2.474C43.825,4.881 47.621,9.202 44.894,13.777C39.515,22.8 24.346,21.34 15.922,18.916C10.059,17.227 4.54,14.284 0,10.191" style="fill:url(#_Linear19);fill-rule:nonzero;"/>
        </g>
        <g transform="matrix(1,0,0,1,208.564,114.477)">
            <path d="M0,-16.31C3.928,-14.736 8.029,-13.037 10.706,-9.759C13.383,-6.482 14.003,-1.111 10.883,1.748C8.362,4.056 4.461,3.94 1.148,3.101C-3.333,1.965 -7.538,-0.246 -11.014,-3.293C-14.643,-6.475 -17.574,-11.744 -15.26,-15.979C-13.515,-19.173 -9.333,-20.366 -5.751,-19.718C-2.17,-19.072 0.96,-16.982 3.974,-14.942" style="fill:url(#_Linear20);fill-rule:nonzero;"/>
        </g>
        <g transform="matrix(-0.0556696,0.998449,0.998449,0.0556696,434.062,-60.0751)">
            <path d="M51.137,-58.063C76.13,-39.299 86.459,-3.258 75.199,25.896C71.081,36.564 62.571,47.268 51.137,47.398C39.868,47.526 31.105,37.219 27.16,26.662C18.971,4.745 24.298,-19.637 29.703,-42.4" style="fill:url(#_Linear21);fill-rule:nonzero;"/>
        </g>
        <g transform="matrix(0,-1,-1,0,0.7915,157.468)">
            <path d="M-7.167,-7.166C-10.572,-7.166 -13.333,-3.957 -13.333,0.001C-13.333,3.959 -10.572,7.167 -7.167,7.167C-3.761,7.167 -1,3.959 -1,0.001C-1,-3.957 -3.761,-7.166 -7.167,-7.166" style="fill:rgb(22,32,35);fill-rule:nonzero;"/>
        </g>
        <g transform="matrix(0,-1,-1,0,-4.7095,183.301)">
            <path d="M-1,-13.334C-4.406,-13.334 -19.5,-10.125 -19.5,-6.167C-19.5,-2.209 -4.406,1 -1,1C2.405,1 5.166,-2.209 5.166,-6.167C5.166,-10.125 2.405,-13.334 -1,-13.334" style="fill:rgb(22,32,35);fill-rule:nonzero;"/>
        </g>
        <g transform="matrix(1,0,0,1,574.449,356.21)">
            <path d="M0,-49.826C2.733,-45.804 4.973,-41.403 7.418,-37.192C9.913,-32.893 12.457,-28.623 15.021,-24.365C17.545,-20.172 19.999,-15.936 22.42,-11.682C23.631,-9.556 24.771,-7.388 26.003,-5.274C27.146,-3.309 28.42,-1.06 30.288,0.293C30.719,0.605 31.349,0.186 31.334,-0.307C31.266,-2.626 30.028,-4.988 28.984,-7.017C27.902,-9.12 26.693,-11.168 25.527,-13.224C23.075,-17.552 20.521,-21.82 17.904,-26.05C15.326,-30.217 12.598,-34.301 9.701,-38.253C8.297,-40.168 6.877,-42.067 5.417,-43.94C3.794,-46.022 2.057,-47.98 0.513,-50.126C0.293,-50.431 -0.218,-50.146 0,-49.826" style="fill:white;fill-rule:nonzero;"/>
        </g>
        <g transform="matrix(1,0,0,1,609.257,372.741)">
            <path d="M0,-11.122C-0.348,-10.145 -0.089,-9.03 0.253,-7.958C0.604,-6.851 1.064,-5.754 1.606,-4.728C2.116,-3.765 2.656,-2.806 3.268,-1.901C3.625,-1.373 4.024,-0.881 4.532,-0.493C4.945,-0.178 5.482,0.253 6.033,0.232C6.313,0.222 6.546,0.047 6.629,-0.221C6.775,-0.695 6.565,-1.277 6.4,-1.724C6.198,-2.268 5.961,-2.789 5.638,-3.287C5.041,-4.205 4.451,-5.123 3.915,-6.078C3.397,-7.001 2.871,-7.921 2.343,-8.839C2.064,-9.321 1.809,-9.82 1.477,-10.268C1.321,-10.477 1.157,-10.664 0.963,-10.833C0.902,-10.859 0.841,-10.885 0.779,-10.911C0.828,-10.939 0.827,-10.971 0.775,-11.002C0.655,-11.128 0.553,-11.182 0.39,-11.28C0.234,-11.375 0.056,-11.279 0,-11.122" style="fill:white;fill-rule:nonzero;"/>
        </g>
        <g transform="matrix(1,0,0,1,619.871,383.862)">
            <path d="M0,-3.951C-0.096,-2.987 0.056,-1.913 0.517,-1.055C0.754,-0.613 1.072,-0.218 1.452,0.111C1.666,0.297 1.804,0.361 2.061,0.467C2.02,0.45 1.979,0.434 1.939,0.416C1.974,0.436 2.008,0.454 2.042,0.473C2.086,0.495 2.13,0.518 2.175,0.538C2.558,0.721 2.927,0.72 3.31,0.543C3.484,0.462 3.639,0.203 3.615,0.01C3.577,-0.305 3.485,-0.588 3.268,-0.831C3.229,-0.873 3.185,-0.916 3.144,-0.955C3.054,-1.042 3.162,-0.941 3.177,-0.899C3.128,-1.038 2.988,-1.182 2.891,-1.285C2.754,-1.43 2.626,-1.577 2.493,-1.725C2.786,-1.398 2.332,-1.931 2.386,-1.867C2.36,-1.897 2.334,-1.927 2.309,-1.957C2.29,-1.979 2.271,-2.002 2.253,-2.025C2.206,-2.085 2.229,-2.055 2.32,-1.939C2.306,-1.98 2.259,-2.024 2.233,-2.059C2.011,-2.381 1.788,-2.71 1.622,-3.064C1.602,-3.109 1.526,-3.227 1.624,-3.054C1.601,-3.097 1.587,-3.147 1.569,-3.192C1.535,-3.285 1.508,-3.379 1.485,-3.474C1.462,-3.57 1.442,-3.666 1.427,-3.762C1.413,-3.843 1.413,-3.871 1.423,-3.772C1.417,-3.832 1.411,-3.891 1.406,-3.951C1.376,-4.316 1.104,-4.672 0.703,-4.654C0.291,-4.636 0.039,-4.344 0,-3.951" style="fill:white;fill-rule:nonzero;"/>
        </g>
        <g transform="matrix(1,0,0,1,465.059,297.068)">
            <path d="M0,-31.953C9.82,-26.992 17.717,-18.08 26.217,-11.208C30.362,-7.857 34.309,-3.874 38.711,-0.887C40.948,0.632 45.229,2.214 47.301,-0.578C52.388,-7.433 36.252,-17.09 31.952,-20.047C22.39,-26.623 11.393,-28.94 0.994,-33.653C-0.14,-34.167 -1.146,-32.532 0,-31.953" style="fill:url(#_Linear22);fill-rule:nonzero;"/>
        </g>
        <g transform="matrix(1,0,0,1,516.161,304.933)">
            <path d="M0,0.165C0.298,1.579 1.354,3.038 2.598,3.728C5.116,5.125 8.769,3.402 8.602,0.283C8.524,-1.156 7.899,-2.811 6.71,-3.74C5.986,-4.306 5.344,-4.719 4.404,-4.845C3.549,-4.96 2.593,-4.851 1.845,-4.368C0.28,-3.359 -0.383,-1.647 0,0.165" style="fill:url(#_Linear23);fill-rule:nonzero;"/>
        </g>
        <g transform="matrix(1,0,0,1,524.518,311.693)">
            <path d="M0,0.491C0.139,1.327 0.505,2.05 1.174,2.591C2.008,3.264 2.886,3.603 3.968,3.329C4.448,3.207 4.872,3.006 5.226,2.652C6.208,1.67 6.279,0.139 5.604,-1.034C5.301,-1.563 4.891,-2.032 4.357,-2.344C4.045,-2.527 3.628,-2.651 3.275,-2.784C2.41,-3.112 1.309,-2.723 0.685,-2.099C-0.04,-1.374 -0.159,-0.474 0,0.491" style="fill:url(#_Linear24);fill-rule:nonzero;"/>
        </g>
        <g transform="matrix(1,0,0,1,530.461,320.224)">
            <path d="M0,-4.213C-0.021,-4.198 -0.043,-4.184 -0.065,-4.169C-0.86,-3.634 -1.325,-2.695 -1.056,-1.735C-0.981,-1.472 -0.867,-1.208 -0.735,-0.968C-0.301,-0.182 0.784,0.285 1.653,0.004C2.55,-0.286 3.193,-1.073 3.205,-2.035C3.209,-2.316 3.16,-2.607 3.1,-2.881C3,-3.331 2.681,-3.727 2.327,-4C1.921,-4.315 1.535,-4.405 1.022,-4.463C0.704,-4.498 0.269,-4.393 0,-4.213" style="fill:url(#_Linear25);fill-rule:nonzero;"/>
        </g>
        <g transform="matrix(1,0,0,1,570.101,381.837)">
            <path d="M0,-8.386C0.201,-7.511 0.391,-6.696 0.468,-5.797C0.543,-4.916 0.436,-4.043 0.729,-3.192L0.729,-4.653C-0.5,-1.566 3.804,1.371 6.176,-0.949C7.179,-1.93 7.325,-3.696 6.634,-4.878C5.771,-6.353 4.263,-6.829 2.648,-6.572C3.354,-6.48 4.06,-6.387 4.766,-6.294C4.187,-6.691 3.502,-6.829 2.916,-7.212C2.209,-7.672 1.826,-8.266 1.413,-8.982C0.966,-9.757 -0.194,-9.23 0,-8.386" style="fill:url(#_Linear26);fill-rule:nonzero;"/>
        </g>
        <g transform="matrix(1,0,0,1,577.294,387.776)">
            <path d="M0,-1.461C0.017,-1.361 0.033,-1.263 0.05,-1.163C0.116,-1.416 0.184,-1.668 0.25,-1.921C0.162,-1.846 0.074,-1.77 -0.013,-1.694C-0.773,-1.041 -0.499,0.236 0.297,0.707C0.318,0.721 0.341,0.733 0.362,0.746C0.767,0.985 1.241,0.999 1.666,0.82C2.107,0.634 2.351,0.312 2.514,-0.129C2.523,-0.155 2.533,-0.181 2.543,-0.207C2.899,-1.172 1.987,-2.12 1.068,-2.143C0.979,-2.145 0.89,-2.147 0.801,-2.148C1.024,-2.021 1.249,-1.892 1.473,-1.763C1.425,-1.849 1.376,-1.935 1.328,-2.021C1.151,-2.333 0.743,-2.46 0.42,-2.318C0.068,-2.163 -0.062,-1.829 0,-1.461" style="fill:url(#_Linear27);fill-rule:nonzero;"/>
        </g>
        <g transform="matrix(1,0,0,1,187.421,185.781)">
            <path d="M0,-38.152C8.259,-29.563 16.013,-22.324 26.896,-17.131C37.57,-12.038 48.81,-8.593 60.4,-6.318C73.565,-3.734 86.922,-2.36 100.28,-1.266C114.042,-0.139 128.079,2.173 141.876,1.544C143.49,1.471 144.492,-0.987 142.774,-1.775C131.253,-7.057 118.413,-8.069 105.98,-9.657C92.705,-11.353 79.351,-12.695 66.174,-15.074C55.258,-17.045 44.389,-19.746 33.918,-23.424C23.027,-27.252 10.431,-32.245 1.393,-39.545C0.426,-40.325 -0.898,-39.087 0,-38.152" style="fill:rgb(22,32,35);fill-rule:nonzero;"/>
        </g>
        <g transform="matrix(1,0,0,1,151.558,120.174)">
            <path d="M0,-0.521C0.438,0.049 0.993,0.622 1.334,1.256C1.673,1.889 2.547,2.011 3.09,1.591C3.646,1.163 3.726,0.313 3.211,-0.192C2.845,-0.551 2.421,-1.243 2.064,-1.728C1.696,-2.231 1.011,-2.532 0.429,-2.157C-0.06,-1.842 -0.407,-1.052 0,-0.521" style="fill:rgb(22,32,35);fill-rule:nonzero;"/>
        </g>
        <g transform="matrix(1,0,0,1,161.638,129.549)">
            <path d="M0,-1.418C0.35,-0.273 0.878,0.765 1.737,1.612C2.04,1.91 2.361,2.184 2.694,2.447C3.59,3.153 4.429,3.446 5.573,3.58C6.823,3.728 8.084,2.645 8.529,1.592C9.045,0.369 8.755,-0.97 7.86,-1.941C7.28,-2.57 6.711,-2.814 5.954,-3.152C6.655,-2.839 5.564,-3.365 5.445,-3.425C5.135,-3.615 4.805,-3.766 4.456,-3.879C4.146,-4.009 4.13,-4.015 4.406,-3.896C3.947,-4.085 3.49,-4.266 3.029,-4.447C1.26,-5.146 -0.508,-3.084 0,-1.418" style="fill:rgb(22,32,35);fill-rule:nonzero;"/>
        </g>
        <g transform="matrix(1,0,0,1,174.957,138.956)">
            <path d="M0,-2.076C0,-2.035 0,-1.994 0.001,-1.952C0.104,-2.332 0.206,-2.711 0.309,-3.091C0.004,-2.638 -0.094,-2.119 -0.097,-1.582L0.275,-2.956C-0.76,-1.178 -0.032,1.237 1.781,2.204C3.065,2.89 4.848,2.803 5.883,1.675C6.931,0.534 7.146,-1.051 6.412,-2.426C5.444,-4.24 3.028,-4.966 1.252,-3.932C1.71,-4.056 2.168,-4.18 2.626,-4.304C2.089,-4.302 1.57,-4.203 1.117,-3.899C1.497,-4.002 1.876,-4.104 2.256,-4.207C2.214,-4.208 2.173,-4.208 2.132,-4.208C0.985,-4.217 -0.009,-3.224 0,-2.076" style="fill:rgb(22,32,35);fill-rule:nonzero;"/>
        </g>
        <g transform="matrix(1,0,0,1,671.288,216.678)">
            <path d="M0,-0.468C-0.007,-0.383 -0.012,-0.298 -0.018,-0.214C0.133,-0.772 0.284,-1.329 0.435,-1.888L0.402,-1.844C0.289,-1.574 0.176,-1.306 0.062,-1.036C-0.079,-0.587 -0.1,-0.138 0.001,0.311C0.002,0.617 0.079,0.901 0.232,1.165C0.312,1.451 0.457,1.7 0.667,1.911C0.905,2.279 1.222,2.569 1.615,2.781C1.885,2.895 2.153,3.009 2.423,3.122C2.723,3.163 3.022,3.203 3.321,3.243C3.787,3.261 4.221,3.164 4.624,2.952C4.91,2.872 5.159,2.726 5.37,2.517C5.624,2.367 5.826,2.165 5.977,1.911C6.275,1.584 6.477,1.201 6.581,0.761C6.622,0.462 6.662,0.162 6.702,-0.138C6.662,-0.438 6.622,-0.737 6.581,-1.036C6.468,-1.306 6.354,-1.574 6.24,-1.844C6.028,-2.238 5.738,-2.554 5.37,-2.792C5.043,-3.091 4.66,-3.293 4.221,-3.398C4.207,-3.403 4.193,-3.407 4.181,-3.412C4.841,-2.904 5.502,-2.396 6.162,-1.888C6.11,-1.956 6.058,-2.026 6.005,-2.094C5.837,-2.312 5.669,-2.53 5.501,-2.746C5.209,-3.061 4.863,-3.283 4.464,-3.413C4.213,-3.559 3.941,-3.632 3.65,-3.633C3.223,-3.729 2.794,-3.709 2.365,-3.575C2.109,-3.467 1.853,-3.359 1.596,-3.25C1.378,-3.082 1.161,-2.914 0.943,-2.746C0.629,-2.454 0.407,-2.109 0.277,-1.709C0.075,-1.325 -0.018,-0.911 0,-0.468" style="fill:url(#_Linear28);fill-rule:nonzero;"/>
        </g>
        <g transform="matrix(1,0,0,1,678.363,225.915)">
            <path d="M0,0.748C0.019,0.816 0.038,0.885 0.057,0.952C0.111,1.144 0.16,1.299 0.275,1.495C0.541,1.948 0.96,2.245 1.456,2.396C1.627,2.42 1.799,2.442 1.97,2.466C2.235,2.476 2.483,2.42 2.714,2.3C2.877,2.254 3.019,2.171 3.14,2.051C3.35,1.915 3.516,1.734 3.637,1.51C3.739,1.368 3.809,1.208 3.844,1.029C3.937,0.683 3.937,0.337 3.844,-0.009C3.833,-0.038 3.821,-0.067 3.81,-0.096C3.785,-0.158 3.761,-0.22 3.736,-0.282C3.677,-0.534 3.561,-0.754 3.39,-0.94C3.253,-1.151 3.072,-1.317 2.846,-1.44C2.624,-1.581 2.384,-1.658 2.126,-1.67C1.868,-1.728 1.61,-1.716 1.354,-1.635C1.199,-1.57 1.045,-1.505 0.891,-1.44C0.6,-1.268 0.367,-1.036 0.195,-0.744C0.13,-0.59 0.064,-0.436 0,-0.282C-0.093,0.061 -0.093,0.405 0,0.748" style="fill:url(#_Linear29);fill-rule:nonzero;"/>
        </g>
        <g transform="matrix(1,0,0,1,684.621,233.776)">
            <path d="M0,3.461C0.029,3.449 0.059,3.437 0.088,3.425C-0.256,3.38 -0.601,3.335 -0.944,3.29C-0.913,3.313 -0.881,3.336 -0.849,3.358C-0.744,3.434 -0.69,3.462 -0.514,3.511C-0.292,3.57 -0.07,3.57 0.151,3.511C0.204,3.497 0.255,3.477 0.302,3.447C0.455,3.398 0.588,3.313 0.699,3.192C0.782,3.122 0.849,3.036 0.899,2.936C1.021,2.727 1.068,2.513 1.07,2.273C1.071,2.232 1.071,2.19 1.072,2.149C0.941,2.462 0.812,2.776 0.682,3.09C0.79,3.019 0.877,2.925 0.942,2.812C1.103,2.636 1.21,2.431 1.267,2.194C1.342,1.954 1.353,1.713 1.299,1.472C1.288,1.231 1.216,1.006 1.084,0.798L0.8,0.432C0.636,0.255 0.441,0.13 0.217,0.057C0.001,-0.057 -0.231,-0.109 -0.481,-0.1C-0.731,-0.109 -0.964,-0.057 -1.18,0.057C-1.404,0.13 -1.599,0.255 -1.763,0.432C-1.857,0.554 -1.952,0.676 -2.046,0.798C-2.179,1.006 -2.251,1.231 -2.262,1.472C-2.315,1.713 -2.305,1.954 -2.229,2.194C-2.168,2.339 -2.107,2.483 -2.046,2.628C-1.886,2.9 -1.669,3.117 -1.396,3.278C-1.252,3.339 -1.107,3.399 -0.963,3.461C-0.642,3.547 -0.32,3.547 0,3.461" style="fill:url(#_Linear30);fill-rule:nonzero;"/>
        </g>
        <g transform="matrix(1,0,0,1,689.248,244.313)">
            <path d="M0,1.897C0.044,1.912 0.087,1.927 0.131,1.942C0.153,1.95 0.175,1.958 0.196,1.964C0.209,1.969 0.221,1.973 0.233,1.977C0.282,1.995 0.312,1.994 0.377,2.002C0.527,2.023 0.461,2.023 0.61,2.002C0.652,1.998 0.692,1.993 0.732,1.986C0.739,1.985 0.746,1.984 0.752,1.983C0.766,1.981 0.778,1.979 0.791,1.977C0.818,1.973 0.845,1.969 0.872,1.964C0.976,1.936 1.064,1.883 1.141,1.808C1.217,1.732 1.269,1.642 1.298,1.539C1.302,1.513 1.306,1.487 1.31,1.46C1.312,1.448 1.313,1.435 1.315,1.421C1.316,1.415 1.317,1.407 1.319,1.4C1.319,1.397 1.32,1.394 1.32,1.391C1.33,1.316 1.341,1.24 1.351,1.165C1.353,1.124 1.348,1.084 1.336,1.043C1.326,0.974 1.327,0.951 1.311,0.9L1.299,0.868C1.291,0.845 1.284,0.824 1.276,0.801L1.229,0.667C1.183,0.498 1.097,0.35 0.973,0.225C0.848,0.101 0.701,0.016 0.531,-0.032C0.187,-0.126 -0.189,-0.027 -0.441,0.225C-0.693,0.478 -0.794,0.854 -0.699,1.199C-0.651,1.368 -0.565,1.515 -0.441,1.64C-0.316,1.763 -0.17,1.849 0,1.897" style="fill:url(#_Linear31);fill-rule:nonzero;"/>
        </g>
        <g transform="matrix(1,0,0,1,693.513,250.678)">
            <path d="M0,2.469C1.589,2.469 1.591,0 0,0C-1.589,0 -1.591,2.469 0,2.469" style="fill:url(#_Linear32);fill-rule:nonzero;"/>
        </g>
        <g transform="matrix(1,0,0,1,270.532,68.5486)">
            <path d="M0,5.437L0.088,5.513C0.348,5.713 0.606,5.915 0.866,6.115C1.173,6.244 1.479,6.373 1.785,6.502C2.125,6.548 2.466,6.593 2.807,6.639C3.336,6.66 3.83,6.549 4.288,6.308C4.614,6.217 4.896,6.052 5.137,5.814C5.425,5.643 5.655,5.414 5.826,5.125C6.064,4.884 6.229,4.602 6.32,4.276C6.562,3.818 6.672,3.324 6.651,2.794C6.647,2.758 6.644,2.722 6.639,2.687C6.637,1.985 6.46,1.331 6.108,0.724C5.763,0.139 5.297,-0.326 4.713,-0.671C4.106,-1.023 3.452,-1.201 2.75,-1.203C2.215,-1.223 1.715,-1.111 1.252,-0.868C0.77,-0.71 0.353,-0.443 0,-0.063C-0.482,0.422 -0.815,0.994 -1,1.653C-1.186,2.342 -1.186,3.031 -1,3.72C-0.815,4.379 -0.482,4.952 0,5.437" style="fill:url(#_Linear33);fill-rule:nonzero;"/>
        </g>
        <g transform="matrix(1,0,0,1,286.177,78.3625)">
            <path d="M0,6.336C0.436,6.353 0.843,6.261 1.22,6.063C1.612,5.936 1.952,5.717 2.239,5.408C2.549,5.121 2.767,4.781 2.895,4.389C3.093,4.011 3.184,3.605 3.167,3.168C3.13,2.888 3.092,2.607 3.054,2.326C2.903,1.789 2.632,1.323 2.239,0.928C2.025,0.763 1.812,0.598 1.599,0.433C1.104,0.147 0.571,0.002 0,0C-0.437,-0.017 -0.844,0.075 -1.221,0.274C-1.613,0.4 -1.953,0.619 -2.24,0.928C-2.549,1.215 -2.768,1.555 -2.896,1.947C-3.094,2.325 -3.185,2.732 -3.168,3.168C-3.13,3.448 -3.093,3.73 -3.055,4.01C-2.904,4.547 -2.633,5.013 -2.24,5.408C-2.026,5.573 -1.812,5.738 -1.6,5.903C-1.105,6.19 -0.572,6.334 0,6.336" style="fill:url(#_Linear34);fill-rule:nonzero;"/>
        </g>
        <g transform="matrix(1,0,0,1,295.735,86.1469)">
            <path d="M0,3.531C0.243,3.54 0.471,3.49 0.681,3.379C0.899,3.307 1.089,3.186 1.249,3.014C1.421,2.854 1.543,2.665 1.614,2.446C1.725,2.235 1.775,2.009 1.766,1.765C1.745,1.609 1.724,1.453 1.703,1.297C1.619,0.997 1.468,0.737 1.249,0.517C1.13,0.425 1.011,0.333 0.892,0.241C0.616,0.081 0.319,0.001 0,0C-0.242,-0.009 -0.47,0.042 -0.68,0.152C-0.898,0.223 -1.088,0.344 -1.248,0.517C-1.42,0.677 -1.542,0.866 -1.613,1.086C-1.724,1.296 -1.774,1.522 -1.766,1.765C-1.744,1.922 -1.723,2.079 -1.702,2.235C-1.618,2.534 -1.467,2.794 -1.248,3.014L-0.891,3.29C-0.615,3.45 -0.318,3.53 0,3.531" style="fill:url(#_Linear35);fill-rule:nonzero;"/>
        </g>
        <g transform="matrix(1,0,0,1,103.082,315.985)">
            <path d="M0,5.785C0.398,5.8 0.77,5.717 1.114,5.536C1.473,5.42 1.783,5.22 2.045,4.938C2.327,4.676 2.526,4.366 2.644,4.007C2.824,3.662 2.907,3.291 2.893,2.892C2.858,2.637 2.823,2.38 2.789,2.124C2.651,1.634 2.403,1.208 2.045,0.848C1.85,0.696 1.655,0.546 1.46,0.395C1.009,0.134 0.522,0.002 0,-0C-0.398,-0.015 -0.77,0.068 -1.114,0.249C-1.473,0.366 -1.783,0.565 -2.045,0.848C-2.327,1.109 -2.526,1.42 -2.644,1.778C-2.824,2.123 -2.907,2.494 -2.893,2.892C-2.858,3.149 -2.823,3.405 -2.789,3.662C-2.651,4.151 -2.404,4.577 -2.045,4.938C-1.851,5.089 -1.655,5.239 -1.46,5.39C-1.009,5.652 -0.522,5.783 0,5.785" style="fill:rgb(22,32,35);fill-rule:nonzero;"/>
        </g>
        <g transform="matrix(1,0,0,1,108.939,325.759)">
            <path d="M0,0.959C0.014,1.061 0.027,1.163 0.042,1.266C0.166,1.707 0.39,2.091 0.713,2.416C1.038,2.739 1.422,2.963 1.863,3.087C2.095,3.118 2.325,3.149 2.557,3.18C3.027,3.179 3.467,3.06 3.873,2.824C4.177,2.66 4.421,2.437 4.605,2.152C4.836,1.9 4.991,1.605 5.072,1.266C5.196,0.803 5.196,0.341 5.072,-0.121C4.948,-0.563 4.725,-0.947 4.401,-1.272C4.327,-1.34 4.253,-1.406 4.179,-1.474C4.01,-1.604 3.842,-1.734 3.673,-1.864C3.386,-2.048 3.076,-2.146 2.743,-2.161C2.521,-2.221 2.3,-2.221 2.078,-2.161C1.745,-2.146 1.436,-2.048 1.148,-1.864C0.98,-1.734 0.812,-1.604 0.643,-1.474C0.513,-1.305 0.382,-1.137 0.252,-0.968C0.069,-0.681 -0.03,-0.371 -0.045,-0.038C-0.119,0.294 -0.104,0.627 0,0.959" style="fill:rgb(22,32,35);fill-rule:nonzero;"/>
        </g>
        <g transform="matrix(1,0,0,1,186.101,397.193)">
            <path d="M0,-8.076L-0.05,-8.14C0.057,-7.747 0.163,-7.354 0.27,-6.961C0.209,-7.743 -0.007,-8.354 -0.554,-8.948C-0.818,-9.236 -1.145,-9.449 -1.455,-9.687C-1.254,-9.532 -1.052,-9.377 -0.851,-9.222C-1.414,-9.662 -1.644,-9.816 -2.314,-10.078C-2.434,-10.125 -2.552,-10.171 -2.673,-10.212C-3.126,-10.364 -3.605,-10.402 -4.081,-10.444C-4.825,-10.511 -5.629,-10.447 -6.354,-10.296C-7.908,-9.971 -9.22,-9.166 -10.449,-8.204C-11.442,-7.427 -12.29,-6.412 -12.937,-5.332C-13.329,-4.677 -13.698,-3.927 -13.869,-3.186C-14.093,-2.217 -14.007,-1.702 -13.86,-0.752C-13.699,0.289 -12.943,1.09 -12.117,1.673C-12.645,0.987 -13.171,0.303 -13.698,-0.383C-13.556,0.092 -13.341,0.502 -13.096,0.919C-12.549,1.849 -11.534,2.435 -10.454,2.435C-9.901,2.433 -9.387,2.293 -8.91,2.017C-8.45,1.744 -8.084,1.379 -7.812,0.919C-7.792,0.892 -7.771,0.865 -7.752,0.838C-7.914,1.049 -8.077,1.259 -8.24,1.47C-7.958,1.132 -7.664,0.806 -7.413,0.44C-8.098,0.966 -8.783,1.492 -9.468,2.02C-8.67,1.809 -8,1.321 -7.5,0.675C-7.317,0.438 -7.147,0.196 -6.968,-0.043C-7.165,0.213 -7.362,0.468 -7.56,0.723C-7.256,0.333 -6.958,0.008 -6.769,-0.432C-6.577,-0.876 -6.398,-1.324 -6.216,-1.77C-6.346,-1.464 -6.475,-1.157 -6.604,-0.851C-6.367,-1.408 -6.063,-1.926 -5.7,-2.41C-5.899,-2.153 -6.098,-1.895 -6.296,-1.639C-5.875,-2.182 -5.393,-2.664 -4.85,-3.085C-5.104,-2.889 -5.357,-2.693 -5.611,-2.497C-4.8,-3.108 -3.926,-3.599 -2.993,-4C-3.27,-3.884 -3.546,-3.766 -3.822,-3.65C-2.477,-4.201 -0.843,-4.397 -0.05,-5.782L-0.888,-4.944C-0.862,-4.954 -0.838,-4.965 -0.812,-4.975C-0.349,-5.173 0.121,-5.855 0.229,-6.33C0.354,-6.881 0.361,-7.605 0,-8.076" style="fill:rgb(22,32,35);fill-rule:nonzero;"/>
        </g>
        <g transform="matrix(1,0,0,1,173.571,387.079)">
            <path d="M0,-8.531C-0.23,-8.597 -0.468,-8.629 -0.697,-8.691C-0.917,-8.751 -1.132,-8.813 -1.357,-8.851C-1.029,-8.661 -0.702,-8.469 -0.374,-8.278C-0.727,-8.651 -1.206,-8.858 -1.69,-8.996C-1.329,-8.785 -0.968,-8.575 -0.606,-8.364C-1.168,-8.868 -1.784,-9.132 -2.539,-9.15C-2.679,-9.154 -2.819,-9.141 -2.96,-9.151C-3.456,-9.186 -3.923,-9.149 -4.417,-9.026C-4.933,-8.899 -5.426,-8.666 -5.902,-8.44C-6.278,-8.261 -6.602,-8.043 -6.932,-7.788C-8.996,-6.193 -10.877,-2.55 -8.563,-0.379C-8.728,-0.592 -8.892,-0.804 -9.057,-1.017L-9.03,-0.962C-8.618,-0.103 -7.655,0.402 -6.76,0.522C-5.772,0.655 -4.875,0.358 -4.149,-0.333C-4.133,-0.348 -4.117,-0.363 -4.101,-0.379C-4.564,-0.108 -5.029,0.162 -5.493,0.433C-4.902,0.224 -4.357,-0.022 -3.906,-0.472C-3.642,-0.738 -3.425,-1.061 -3.268,-1.401C-3.059,-1.853 -2.908,-2.319 -2.719,-2.776C-2.832,-2.507 -2.946,-2.237 -3.06,-1.968C-2.889,-2.363 -2.672,-2.73 -2.412,-3.075C-2.587,-2.848 -2.761,-2.623 -2.936,-2.397C-2.582,-2.852 -2.22,-3.299 -1.871,-3.759C-2.041,-3.539 -2.211,-3.319 -2.38,-3.099C-2.198,-3.332 -2.002,-3.551 -1.789,-3.754C-1.694,-3.844 -1.602,-3.935 -1.505,-4.023C-1.222,-4.282 -1.029,-4.547 -0.783,-4.87L-1.231,-4.29C-1.154,-4.387 -1.078,-4.485 -0.989,-4.572L-1.531,-4.153C-1.425,-4.23 -1.314,-4.299 -1.206,-4.373C-1.016,-4.505 -0.805,-4.661 -0.637,-4.822C-0.292,-5.153 -0.138,-5.543 0.026,-5.972C-0.185,-5.611 -0.396,-5.25 -0.606,-4.887C-0.376,-5.091 -0.167,-5.28 -0.025,-5.577L-0.825,-4.777C-0.736,-4.82 -0.647,-4.861 -0.557,-4.899C-0.726,-4.828 -0.896,-4.757 -1.065,-4.684C-0.92,-4.743 -0.773,-4.798 -0.623,-4.841C-0.799,-4.817 -0.975,-4.794 -1.15,-4.769C-0.936,-4.791 -0.723,-4.795 -0.507,-4.787C0.44,-4.75 1.244,-5.541 1.365,-6.439C1.49,-7.374 0.919,-8.267 0,-8.531" style="fill:rgb(22,32,35);fill-rule:nonzero;"/>
        </g>
        <g transform="matrix(1,0,0,1,162.304,376.818)">
            <path d="M0,-5.478C-0.191,-5.42 -0.383,-5.362 -0.574,-5.304C0.011,-5.227 0.597,-5.151 1.182,-5.074C1.084,-5.129 0.981,-5.174 0.874,-5.207C0.78,-5.259 0.683,-5.3 0.581,-5.33C0.368,-5.358 0.156,-5.387 -0.057,-5.416C-0.274,-5.39 -0.492,-5.361 -0.709,-5.328C-0.09,-5.247 0.528,-5.166 1.146,-5.084C0.927,-5.257 0.676,-5.373 0.391,-5.43C0.142,-5.463 -0.107,-5.497 -0.356,-5.531C-0.744,-5.545 -1.104,-5.464 -1.44,-5.289C-1.789,-5.175 -2.09,-4.981 -2.345,-4.707C-2.619,-4.452 -2.813,-4.151 -2.927,-3.802C-3.103,-3.466 -3.184,-3.106 -3.169,-2.718C-3.184,-2.332 -3.103,-1.97 -2.927,-1.635C-2.813,-1.287 -2.619,-0.985 -2.345,-0.73L-1.776,-0.291C-1.337,-0.036 -0.864,0.092 -0.356,0.094C-0.107,0.06 0.142,0.027 0.391,-0.006C0.867,-0.14 1.281,-0.381 1.632,-0.73C1.778,-0.919 1.925,-1.109 2.071,-1.299C2.277,-1.622 2.389,-1.97 2.405,-2.344C2.489,-2.718 2.473,-3.092 2.355,-3.466C2.298,-3.75 2.183,-4.002 2.01,-4.221C2.091,-3.603 2.172,-2.985 2.252,-2.367C2.27,-2.477 2.284,-2.588 2.298,-2.701C2.369,-3.019 2.354,-3.337 2.255,-3.656C2.197,-3.866 2.105,-4.067 1.999,-4.256C2.075,-3.671 2.152,-3.086 2.229,-2.5C2.287,-2.693 2.345,-2.884 2.402,-3.076C2.604,-3.738 2.384,-4.494 1.9,-4.976C1.657,-5.218 1.369,-5.385 1.039,-5.478C0.692,-5.572 0.347,-5.572 0,-5.478" style="fill:rgb(22,32,35);fill-rule:nonzero;"/>
        </g>
        <g transform="matrix(1,0,0,1,154.402,364.454)">
            <path d="M0,4.25C2.734,4.25 2.739,0 0,0C-2.734,0 -2.739,4.25 0,4.25" style="fill:rgb(22,32,35);fill-rule:nonzero;"/>
        </g>
        <g transform="matrix(1,0,0,1,212.832,238.231)">
            <path d="M0,-6.498C-0.026,-6.182 0.188,-5.044 0.056,-5.833C-0.075,-6.611 0.151,-5.195 0.178,-5.061L0.178,-6.961C0.177,-6.955 0.175,-6.948 0.174,-6.941C-0.15,-5.403 0.354,-3.301 1.95,-2.576C4.391,-1.469 6.999,-0.673 9.52,0.235C12.384,1.27 17.225,3.542 18.906,-0.442C19.499,-1.849 19.129,-3.415 18.037,-4.478C17.178,-5.317 16.34,-5.693 15.235,-6.127C14.138,-6.558 13.017,-6.92 11.901,-7.299C9.601,-8.08 7.284,-9.048 4.929,-9.642C3.353,-10.04 1.338,-9.4 0.563,-7.865C0.747,-8.239 1.018,-8.526 1.374,-8.726C1.047,-8.55 0.784,-8.309 0.587,-8.003C0.225,-7.534 0.051,-7.108 0,-6.498" style="fill:url(#_Linear36);fill-rule:nonzero;"/>
        </g>
        <g transform="matrix(1,0,0,1,190.873,225.043)">
            <path d="M0,-4.547C-0.294,-4.167 -0.386,-3.678 -0.374,-3.204C-0.278,-3.559 -0.182,-3.914 -0.086,-4.269C-0.753,-3.339 -0.419,-2.211 0.048,-1.301C0.315,-0.779 0.819,-0.393 1.271,-0.044C1.726,0.307 1.679,0.249 2.345,0.523C2.41,0.551 2.475,0.577 2.541,0.601C2.79,0.692 3.007,0.724 3.278,0.76C4.109,0.872 4.968,0.791 5.709,0.345C6.531,-0.151 7.054,-1.032 7.054,-1.999C7.052,-2.489 6.929,-2.946 6.683,-3.37C6.441,-3.777 6.117,-4.103 5.709,-4.344C5.362,-4.601 4.927,-4.687 4.533,-4.85L5.222,-4.56C4.743,-4.766 4.205,-5.003 3.68,-5.101C3.536,-5.127 3.396,-5.162 3.256,-5.205C2.901,-5.314 2.527,-5.326 2.16,-5.371C2.387,-5.34 2.613,-5.31 2.84,-5.279C2.769,-5.289 2.698,-5.302 2.627,-5.314C2.513,-5.337 2.397,-5.353 2.281,-5.361C2.067,-5.419 1.853,-5.419 1.638,-5.361C1.419,-5.361 1.216,-5.306 1.026,-5.196C0.893,-5.166 0.774,-5.109 0.671,-5.026C1.025,-5.122 1.381,-5.218 1.735,-5.314L1.665,-5.322C1.847,-5.298 2.027,-5.275 2.208,-5.25C1.989,-5.282 1.734,-5.356 1.532,-5.347C1.323,-5.337 1.094,-5.306 0.896,-5.236C0.701,-5.191 0.53,-5.101 0.386,-4.968C0.223,-4.862 0.094,-4.722 0,-4.547" style="fill:url(#_Linear37);fill-rule:nonzero;"/>
        </g>
        <g transform="matrix(1,0,0,1,165.07,206.832)">
            <path d="M0,2.437C0.132,2.544 0.264,2.651 0.396,2.758C0.459,2.81 0.522,2.861 0.586,2.912C0.62,2.94 0.655,2.968 0.689,2.996C0.78,3.07 0.873,3.142 0.967,3.212C1.059,3.286 1.151,3.357 1.246,3.426C1.385,3.508 1.532,3.579 1.675,3.654C1.753,3.695 1.83,3.738 1.908,3.778C2.272,3.962 2.673,4.109 3.09,4.088C3.289,4.062 3.487,4.036 3.687,4.008C3.92,3.954 4.13,3.856 4.317,3.717L2.817,3.914C2.878,3.925 2.938,3.938 2.998,3.951C3.1,3.971 3.192,3.981 3.302,3.996C3.604,4.036 3.52,4.039 3.819,3.998C4.059,3.987 4.282,3.916 4.489,3.784C4.61,3.69 4.732,3.596 4.854,3.502C4.856,3.499 4.859,3.498 4.861,3.495C4.916,3.44 4.918,3.427 4.997,3.325C5.071,3.229 5.089,3.216 5.128,3.151C5.131,3.146 5.133,3.142 5.136,3.137C5.196,2.994 5.257,2.851 5.317,2.708C5.339,2.547 5.36,2.388 5.382,2.228C5.36,2.069 5.339,1.909 5.317,1.75C5.313,1.738 5.311,1.726 5.307,1.714C5.261,1.56 5.174,1.387 5.104,1.241C5.075,1.178 5.045,1.116 5.016,1.053L5.212,2.553C5.271,2.424 5.298,2.288 5.294,2.142C5.361,1.844 5.348,1.545 5.254,1.248C5.226,1.141 5.185,1.039 5.13,0.942C5.038,0.66 4.882,0.416 4.66,0.21C4.607,0.15 4.553,0.089 4.499,0.03C4.386,-0.096 4.278,-0.23 4.16,-0.35C3.931,-0.584 3.594,-0.789 3.321,-0.996L2.896,-1.318C2.622,-1.493 2.326,-1.587 2.008,-1.601C1.69,-1.672 1.372,-1.659 1.055,-1.559C0.864,-1.478 0.674,-1.398 0.483,-1.318C0.205,-1.167 -0.019,-0.962 -0.187,-0.702C-0.335,-0.553 -0.437,-0.377 -0.495,-0.174C-0.645,0.111 -0.713,0.417 -0.7,0.747L-0.615,1.382C-0.502,1.788 -0.297,2.139 0,2.437" style="fill:url(#_Linear38);fill-rule:nonzero;"/>
        </g>
        <g transform="matrix(1,0,0,1,456.333,527.923)">
            <path d="M0,-55.828C5.416,-59.565 12.762,-59.669 18.921,-57.353C25.08,-55.038 30.212,-50.593 34.652,-45.738C39.325,-40.63 43.453,-34.856 45.593,-28.272C47.732,-21.688 47.706,-14.193 44.416,-8.102C40.446,-0.751 32.464,3.255 24.322,3.601C18.674,3.841 12.586,3.28 7.903,-0.194C3.776,-3.257 1.418,-8.036 -0.457,-12.69C-3.083,-19.21 -6.005,-26.329 -7.411,-33.21C-9.051,-41.235 -7.097,-50.932 0,-55.828" style="fill:url(#_Linear39);fill-rule:nonzero;"/>
        </g>
        <g transform="matrix(1,0,0,1,297.925,489.904)">
            <path d="M0,-6.478C0.311,-12.522 5.642,-17.804 11.668,-18.362C17.694,-18.918 23.762,-14.925 25.931,-9.275C28.751,-1.926 24.439,7.348 16.991,9.894C9.543,12.44 0.434,7.71 -1.735,0.144C-3.903,-7.423 1.354,-16.28 9.042,-17.965" style="fill:url(#_Linear40);fill-rule:nonzero;"/>
        </g>
        <g transform="matrix(1,0,0,1,73.3725,259.176)">
            <path d="M0,5.676C2.174,2.12 -0.583,-3.298 -4.736,-3.635C-8.89,-3.971 -12.482,0.932 -10.91,4.791C-9.338,8.65 -3.341,9.647 -0.605,6.503" style="fill:url(#_Linear41);fill-rule:nonzero;"/>
        </g>
        <g transform="matrix(1,0,0,1,79.1665,19.689)">
            <path d="M0,0.736C3.424,3.598 2.417,9.768 -1.355,12.153C-5.128,14.538 -10.395,13.463 -13.71,10.475C-17.025,7.487 -18.641,3.002 -19.195,-1.427C-19.57,-4.421 -19.421,-7.743 -17.47,-10.045C-14.285,-13.802 -7.803,-12.703 -4.411,-9.132C-1.021,-5.56 0.095,-0.459 1.073,4.368" style="fill:url(#_Linear42);fill-rule:nonzero;"/>
        </g>
        <g transform="matrix(1,0,0,1,538.599,188.784)">
            <path d="M0,-4.71C-1.66,-8.874 -2.195,-14.315 1.216,-17.225C6.312,-21.572 14.097,-16.921 18.254,-13.477C22.365,-10.07 27.529,-6.521 30.315,-1.857C32.873,2.423 31.855,8.501 28.669,12.259C24.766,16.862 17.565,14.159 13.396,11.487C7.4,7.647 2.637,1.905 0,-4.71" style="fill:url(#_Linear43);fill-rule:nonzero;"/>
        </g>
        <g transform="matrix(1,0,0,1,390.757,199.327)">
            <path d="M0,-7.846C2.952,-6.804 6.441,-4.372 5.433,-1.409C4.823,0.38 2.818,1.221 1.014,1.781C-7.101,4.297 -15.655,5.36 -24.139,4.967C-28.329,4.773 -32.504,4.224 -36.601,3.319C-40.214,2.521 -44.83,1.732 -47.53,-1.025C-51.208,-4.781 -50.046,-11.038 -44.805,-12.102C-39.359,-13.206 -33.451,-11.9 -27.94,-11.989C-18.386,-12.143 -9.052,-11.04 0,-7.846" style="fill:url(#_Linear44);fill-rule:nonzero;"/>
        </g>
        <g transform="matrix(1,0,0,1,35.4487,403.512)">
            <path d="M0,69.295C-3.458,69.995 -6.961,67.756 -8.905,64.812C-10.85,61.867 -11.597,58.321 -12.46,54.899C-15.44,43.085 -20.243,31.732 -26.645,21.365C-28.862,17.774 -31.563,13.617 -31.289,9.205C-31.051,5.378 -28.325,2.566 -24.729,1.56C-16.662,-0.7 -10.629,6.391 -5.597,11.564C-2.067,15.191 0.94,19.058 2.697,23.849C5.174,30.602 6.771,38.258 7.463,45.385C8.102,51.968 9.161,67.442 0,69.295" style="fill:rgb(22,32,35);fill-rule:nonzero;"/>
        </g>
        <g transform="matrix(1,0,0,1,659.696,365.871)">
            <path d="M0,-57.076C-0.81,-48.344 4.61,-40.028 10.353,-33.927C16.993,-26.869 25.314,-21.846 33.008,-16.069C34.869,-14.672 36.712,-13.251 38.465,-11.718C39.84,-10.515 41.343,-8.945 41.907,-7.557C41.952,-7.446 42.277,-6.219 42.214,-6.682C42.244,-6.464 42.245,-6.21 42.233,-5.986C42.258,-6.45 42.237,-5.948 42.195,-5.84C41.938,-5.183 42.07,-5.516 42.123,-5.638C41.9,-5.124 41.883,-5.268 42.006,-5.429C41.767,-5.117 41.688,-5.111 41.883,-5.256C41.612,-5.055 41.274,-4.86 40.965,-4.73C41.3,-4.87 40.336,-4.578 40.207,-4.548C40.153,-4.536 39.421,-4.404 39.739,-4.448C40.058,-4.493 39.319,-4.419 39.263,-4.416C38.354,-4.364 37.031,-4.418 36.389,-4.511C27.862,-5.739 20.954,-12.837 15.139,-18.77C9.19,-24.84 3.589,-31.759 0.311,-39.568C-1.183,-43.125 -2.624,-47.401 -2.495,-51.177C-2.488,-51.391 -2.475,-51.607 -2.455,-51.822C-2.5,-51.324 -2.456,-51.841 -2.436,-51.932C-2.346,-52.338 -2.258,-52.744 -2.108,-53.133C-2.293,-52.653 -1.882,-53.5 -1.76,-53.67C-2.13,-53.153 -1.794,-53.668 -1.72,-53.67C-1.96,-53.506 -1.987,-53.482 -1.8,-53.599C-1.614,-53.703 -1.644,-53.7 -1.889,-53.591C-1.508,-53.734 -1.795,-53.681 -1.606,-53.598C-1.422,-53.518 -1.248,-53.428 -1.035,-53.246C-0.322,-52.639 -0.088,-51.71 0.128,-50.831C0.679,-48.592 1.002,-46.351 1.788,-44.169C2.588,-41.95 3.588,-39.784 4.776,-37.747C7.124,-33.72 10.186,-30.084 13.521,-26.843C17.182,-23.287 21.202,-20.095 25.238,-16.979C27.128,-15.52 29.028,-14.068 30.857,-12.533C31.665,-11.854 32.483,-11.132 33.131,-10.295C33.033,-10.422 32.927,-10.602 33.303,-10.036C33.445,-9.821 33.573,-9.597 33.7,-9.372C33.846,-9.112 33.931,-8.8 33.955,-8.593C33.908,-8.986 33.782,-8.103 33.927,-8.466C34.081,-8.853 33.682,-7.958 33.85,-8.327C34.099,-8.879 33.883,-8.384 33.594,-8.165C34.122,-8.564 33.557,-8.18 33.5,-8.181C33.925,-8.168 33.657,-8.221 33.426,-8.169C33.21,-8.121 33,-8.05 32.78,-8.018C33.482,-8.12 32.443,-8.061 32.374,-8.062C32.199,-8.066 31.767,-8.212 32.31,-8.071C32.071,-8.134 31.837,-8.189 31.604,-8.274C31.718,-8.232 32.133,-7.985 31.329,-8.4C31.092,-8.523 30.858,-8.659 30.631,-8.801C29.878,-9.268 29.247,-9.851 28.496,-10.576C25.124,-13.83 21.98,-17.346 19.023,-20.977C13.246,-28.077 8.286,-36.076 3.789,-44.149C2.677,-46.145 1.325,-47.969 -0.012,-49.817C-1.361,-51.684 -4.166,-50.579 -3.724,-48.252C-2.718,-42.962 -0.477,-38.211 2.124,-33.523C4.652,-28.967 7.531,-24.632 10.666,-20.472C13.85,-16.248 17.242,-12.189 20.897,-8.366C24.567,-4.528 28.81,-0.162 34.633,-1.3C37.325,-1.826 39.685,-3.736 40.526,-6.381C41.455,-9.296 40.337,-12.213 38.544,-14.522C36.904,-16.633 34.768,-18.208 32.671,-19.836C30.322,-21.658 27.941,-23.434 25.57,-25.227C17.917,-31.013 9.773,-37.948 6.902,-47.477C6.139,-50.013 5.925,-52.666 4.766,-55.077C3.549,-57.61 1.038,-59.653 -1.866,-59.672C-7.34,-59.707 -9.267,-53.835 -8.762,-49.281C-7.638,-39.152 -2.657,-30.087 3.561,-22.197C6.638,-18.293 10.061,-14.672 13.639,-11.226C17.328,-7.676 21.235,-4.2 25.688,-1.63C29.977,0.847 35.161,2.631 40.176,2.057C43.016,1.732 45.69,0.687 47.413,-1.702C48.995,-3.896 49.213,-6.808 48.303,-9.32C46.404,-14.555 41.46,-18.176 37.103,-21.309C32.737,-24.45 28.199,-27.345 23.718,-30.312C15.915,-35.477 8.026,-41.936 4.314,-50.802C3.429,-52.917 2.671,-55.143 2.087,-57.359C1.766,-58.58 0.106,-58.22 0,-57.076" style="fill:url(#_Linear45);fill-rule:nonzero;"/>
        </g>
        <g transform="matrix(1,0,0,1,657.107,355.767)">
            <path d="M0,-36.958C1.321,-33.408 2.381,-29.812 4.119,-26.424C5.786,-23.172 7.747,-20.09 9.943,-17.17C14.554,-11.036 20.249,-5.709 26.613,-1.422C28.492,-0.157 30.425,1.007 32.534,1.848C33.453,2.214 34.405,2.616 35.389,2.787C35.949,2.884 36.531,2.986 37.103,2.997C37.343,3.001 37.597,3.006 37.834,2.94C38.056,2.895 38.252,2.803 38.422,2.664C38.568,2.563 38.533,2.573 38.318,2.696C39.521,2.655 39.887,1.364 39.224,0.509C39.302,0.61 39.443,1.317 39.338,0.637C39.277,0.254 39.148,-0.041 38.924,-0.355C38.701,-0.669 38.411,-0.965 38.145,-1.243C37.496,-1.921 36.742,-2.462 36.005,-3.009C34.559,-4.083 32.996,-5.198 31.428,-6.233C28.4,-8.23 25.884,-10.15 23.229,-12.473C18.035,-17.015 13.327,-22.277 9.395,-27.947C7.125,-31.22 4.659,-34.59 3.056,-38.246C2.302,-39.964 -0.662,-38.734 0,-36.958" style="fill:url(#_Linear46);fill-rule:nonzero;"/>
        </g>
        <g transform="matrix(1,0,0,1,691.341,361.249)">
            <path d="M0,-6.759C0.529,-5.079 1.489,-3.733 2.865,-2.634C4.314,-1.477 5.974,-0.665 7.811,-0.343C7.165,-1.479 6.521,-2.614 5.875,-3.75C5.687,-2.628 5.574,-1.52 5.486,-0.386C6.509,-1.408 7.531,-2.431 8.555,-3.453C7.87,-3.447 7.193,-3.434 6.512,-3.494C6.396,-3.504 5.791,-3.582 6.315,-3.507C6.857,-3.43 6.184,-3.533 6.123,-3.544C5.788,-3.603 5.455,-3.673 5.125,-3.755C4.496,-3.911 3.878,-4.109 3.274,-4.344C3.115,-4.405 2.959,-4.473 2.801,-4.537C2.698,-4.578 2.141,-4.814 2.607,-4.609C3.09,-4.396 2.466,-4.675 2.418,-4.697C2.263,-4.77 2.109,-4.846 1.956,-4.92C1.369,-5.204 0.816,-5.53 0.248,-5.846C-0.049,-6.011 -0.353,-6.153 -0.636,-6.341C-0.776,-6.434 -0.908,-6.538 -1.045,-6.637C-1.357,-6.862 -0.526,-6.235 -1.057,-6.649C-1.449,-6.954 -1.85,-7.219 -2.318,-7.394C-2.138,-7.326 -2.131,-7.242 -2.321,-7.404C-2.477,-7.534 -2.63,-7.668 -2.784,-7.8C-2.973,-7.961 -3.167,-8.11 -3.361,-8.262C-3.1,-8.056 -3.448,-8.333 -3.494,-8.372C-3.841,-8.657 -4.167,-8.895 -4.562,-9.104C-5.575,-9.639 -6.751,-8.97 -6.795,-7.821C-6.831,-6.899 -6.542,-6.031 -6.148,-5.205C-6.062,-5.023 -5.966,-4.844 -5.868,-4.666C-5.829,-4.595 -5.515,-4.177 -5.707,-4.428C-5.887,-4.663 -5.645,-4.291 -5.609,-4.204C-5.343,-3.553 -5.299,-3.405 -4.849,-2.857C-3.802,-1.579 -2.566,-0.46 -1.165,0.42C0.24,1.302 1.847,1.913 3.463,2.275C5.089,2.639 6.885,2.88 8.555,2.681C9.357,2.587 10.145,2.414 10.724,1.783C11.248,1.213 11.688,0.418 11.622,-0.386C11.527,-1.52 11.413,-2.629 11.218,-3.75C11.025,-4.855 9.664,-5.877 8.547,-5.784C8.196,-5.755 7.847,-5.742 7.496,-5.754C7.357,-5.759 7.219,-5.772 7.08,-5.778C6.586,-5.801 7.339,-5.711 7.027,-5.778C6.374,-5.917 5.739,-6.066 5.104,-6.279C4.977,-6.321 4.831,-6.386 5.04,-6.295C4.878,-6.365 4.72,-6.444 4.562,-6.524C4.284,-6.666 4.012,-6.823 3.749,-6.994C3.233,-7.33 2.692,-7.655 2.22,-8.052C1.276,-8.844 -0.43,-8.124 0,-6.759" style="fill:url(#_Linear47);fill-rule:nonzero;"/>
        </g>
        <g transform="matrix(1,0,0,1,658.294,318.699)">
            <path d="M0,-6.552C-0.026,-5.466 -0.098,-4.371 -0.07,-3.284C-0.058,-2.763 -0.063,-2.237 -0.025,-1.716C0.034,-0.894 0.207,-0.081 0.595,0.648C0.938,1.293 1.729,1.617 2.424,1.524C3.147,1.427 3.739,0.916 3.949,0.21C4.34,-1.105 3.986,-2.49 3.754,-3.802C3.566,-4.864 3.28,-5.913 3.039,-6.963C2.866,-7.714 2.068,-8.169 1.342,-8.072C0.575,-7.969 0.02,-7.329 0,-6.552" style="fill:url(#_Linear48);fill-rule:nonzero;"/>
        </g>
        <g transform="matrix(1,0,0,1,657.649,318.413)">
            <path d="M0,-6.064C-0.108,-5.576 -0.217,-5.087 -0.325,-4.598C-0.257,-4.76 -0.188,-4.923 -0.12,-5.085C-0.292,-4.693 -0.438,-4.337 -0.537,-3.924C-0.603,-3.652 -0.667,-3.381 -0.721,-3.106C-0.953,-1.907 -1.023,-0.345 -0.042,0.556C0.398,0.962 1.023,1.282 1.642,1.254C2.289,1.225 2.846,0.999 3.326,0.556C4.308,-0.346 4.237,-1.907 4.004,-3.106C3.954,-3.367 3.894,-3.624 3.831,-3.881C3.801,-4.01 3.772,-4.14 3.739,-4.268C3.665,-4.555 3.522,-4.816 3.403,-5.085C3.472,-4.923 3.541,-4.76 3.609,-4.598C3.501,-5.087 3.393,-5.576 3.284,-6.064C3.129,-6.762 2.356,-7.346 1.642,-7.315C0.918,-7.282 0.166,-6.813 0,-6.064" style="fill:url(#_Linear49);fill-rule:nonzero;"/>
        </g>
        <g transform="matrix(1,0,0,1,651.035,301.266)">
            <path d="M0,-7.108C-0.073,-7.079 -0.148,-7.059 -0.227,-7.047L0.749,-7.179C0.689,-7.171 0.63,-7.17 0.569,-7.174C1.642,-6.559 2.715,-5.943 3.788,-5.328C3.78,-5.35 3.771,-5.371 3.759,-5.39C3.556,-5.653 3.354,-5.916 3.15,-6.178C2.799,-6.557 2.381,-6.825 1.898,-6.982C1.596,-7.158 1.269,-7.247 0.917,-7.248C0.4,-7.364 -0.117,-7.34 -0.634,-7.178C-0.683,-7.16 -0.732,-7.146 -0.784,-7.138C-0.445,-7.184 -0.106,-7.23 0.232,-7.275C0.211,-7.273 0.189,-7.271 0.168,-7.27C-0.174,-7.225 -0.516,-7.179 -0.856,-7.132C-1.5,-6.953 -2.058,-6.628 -2.531,-6.157C-2.54,-6.147 -2.547,-6.137 -2.557,-6.129C-1.694,-6.486 -0.831,-6.843 0.032,-7.201L0.02,-7.201C0.343,-7.158 0.667,-7.114 0.99,-7.07C0.968,-7.077 0.946,-7.085 0.925,-7.093C1.214,-6.972 1.503,-6.85 1.791,-6.728C1.744,-6.75 1.7,-6.775 1.659,-6.806C1.9,-6.62 2.142,-6.433 2.382,-6.248C2.365,-6.26 2.35,-6.275 2.333,-6.289C2.216,-6.388 2.094,-6.482 1.969,-6.571C1.747,-6.791 1.486,-6.943 1.187,-7.027C0.909,-7.187 0.611,-7.268 0.291,-7.269C0.106,-7.329 -0.078,-7.347 -0.265,-7.325C0.756,-6.547 1.777,-5.771 2.798,-4.994C2.767,-5.068 2.744,-5.145 2.732,-5.225C2.77,-4.953 2.806,-4.68 2.843,-4.408C2.835,-4.47 2.836,-4.531 2.835,-4.593C2.833,-5.134 2.697,-5.639 2.426,-6.107C2.159,-6.557 1.801,-6.916 1.35,-7.182C0.882,-7.454 0.378,-7.59 -0.163,-7.591C-0.705,-7.59 -1.209,-7.454 -1.677,-7.182C-1.814,-7.08 -2.167,-6.823 -2.295,-6.705C-2.303,-6.699 -2.31,-6.692 -2.316,-6.685C-2.33,-6.672 -2.343,-6.659 -2.355,-6.645C-2.368,-6.632 -2.38,-6.618 -2.392,-6.604C-2.565,-6.394 -2.743,-6.164 -2.902,-5.942C-2.925,-5.911 -2.945,-5.879 -2.964,-5.844C-2.973,-5.829 -2.98,-5.812 -2.988,-5.796C-3.109,-5.535 -3.22,-5.259 -3.327,-4.994L-1.109,-7.212C-1.114,-7.21 -1.118,-7.208 -1.123,-7.206C-1.405,-7.087 -1.688,-6.967 -1.971,-6.848C-2.384,-6.626 -2.716,-6.321 -2.966,-5.934C-3.186,-5.713 -3.338,-5.453 -3.422,-5.152C-3.644,-4.729 -3.746,-4.274 -3.728,-3.786C-3.715,-3.623 -3.693,-3.461 -3.663,-3.3C-3.645,-3.137 -3.623,-2.975 -3.597,-2.813C-3.595,-2.799 -3.592,-2.786 -3.589,-2.771C-3.583,-2.747 -3.575,-2.722 -3.567,-2.699C-3.564,-2.692 -3.563,-2.686 -3.56,-2.68C-3.438,-2.392 -3.317,-2.105 -3.196,-1.818C-3.19,-1.804 -3.185,-1.792 -3.178,-1.778C-3.165,-1.753 -3.15,-1.728 -3.135,-1.705C-3.258,-1.996 -3.38,-2.286 -3.503,-2.577C-3.502,-2.573 -3.5,-2.57 -3.499,-2.566L-3.499,-4.512C-3.502,-4.504 -3.504,-4.495 -3.506,-4.485C-3.864,-3.177 -3.488,-1.709 -2.503,-0.765C-1.82,-0.11 -1.498,-0.029 -0.634,0.324C-0.289,0.37 0.056,0.416 0.4,0.462C0.936,0.483 1.436,0.371 1.898,0.127C2.229,0.035 2.515,-0.131 2.757,-0.373C3.181,-0.647 3.515,-1.01 3.759,-1.464C3.838,-1.615 3.904,-1.772 3.958,-1.934C4.068,-2.096 4.137,-2.27 4.163,-2.456C3.593,-1.713 3.021,-0.97 2.45,-0.228C2.779,-0.423 3.087,-0.665 3.362,-0.93C3.389,-0.956 3.414,-0.983 3.438,-1.011C3.635,-1.251 3.841,-1.52 4.024,-1.771C4.038,-1.789 4.051,-1.806 4.062,-1.824C4.184,-2.11 4.304,-2.397 4.425,-2.683C4.468,-3.002 4.511,-3.321 4.554,-3.639C4.511,-3.959 4.468,-4.277 4.425,-4.595C4.313,-5.064 4.1,-5.471 3.781,-5.819C3.621,-6.089 3.406,-6.304 3.136,-6.464C2.911,-6.687 2.647,-6.841 2.343,-6.926C2.062,-7.089 1.759,-7.171 1.435,-7.172C0.957,-7.279 0.479,-7.258 0,-7.108" style="fill:url(#_Linear50);fill-rule:nonzero;"/>
        </g>
        <g transform="matrix(1,0,0,1,643.294,277.632)">
            <path d="M0,5C0.067,5.016 0.135,5.032 0.202,5.048C0.232,5.056 0.263,5.062 0.292,5.069L0.942,5.157C1.172,5.174 1.391,5.144 1.599,5.067C1.698,5.031 1.797,4.989 1.894,4.943C2.017,4.902 2.135,4.85 2.248,4.786L0.087,4.786C0.241,4.862 0.395,4.938 0.549,5.014L0.572,5.025C0.729,5.092 0.885,5.157 1.04,5.224C1.128,5.262 1.222,5.275 1.321,5.267C1.414,5.301 1.506,5.312 1.6,5.3C1.627,5.297 1.655,5.293 1.684,5.29C1.886,5.267 2.107,5.256 2.296,5.209C2.835,5.075 3.304,4.605 3.438,4.067C3.469,3.942 3.486,3.733 3.501,3.605L3.507,3.559C3.51,3.527 3.514,3.495 3.518,3.464C3.521,3.433 3.525,3.401 3.528,3.37C3.549,3.187 3.513,2.997 3.457,2.822C3.423,2.74 3.389,2.659 3.354,2.577C3.321,2.489 3.285,2.403 3.243,2.32C3.168,2.166 3.092,2.012 3.016,1.858L3.016,4.019C3.027,3.997 3.039,3.975 3.051,3.953C3.132,3.761 3.213,3.567 3.295,3.375C3.335,3.269 3.351,3.156 3.343,3.038C3.401,2.821 3.401,2.604 3.343,2.388C3.321,2.229 3.312,2.113 3.277,1.973C3.262,1.905 3.245,1.838 3.229,1.771C3.104,1.326 2.88,0.939 2.555,0.612C2.227,0.287 1.841,0.063 1.396,-0.062C0.492,-0.312 -0.496,-0.05 -1.158,0.612C-1.82,1.274 -2.082,2.263 -1.833,3.166C-1.708,3.611 -1.483,3.997 -1.158,4.325C-0.83,4.65 -0.444,4.875 0,5" style="fill:url(#_Linear51);fill-rule:nonzero;"/>
        </g>
    </g>
    <defs>
        <linearGradient id="_Linear1" x1="0" y1="0" x2="1" y2="0" gradientUnits="userSpaceOnUse" gradientTransform="matrix(904.341,0,0,702.178,-140.959,-244.719)"><stop offset="0" style="stop-color:rgb(255,108,149);stop-opacity:1"/><stop offset="1" style="stop-color:rgb(255,115,111);stop-opacity:1"/></linearGradient>
        <linearGradient id="_Linear2" x1="0" y1="0" x2="1" y2="0" gradientUnits="userSpaceOnUse" gradientTransform="matrix(1072.23,0,0,719.576,-176.364,-283.44)"><stop offset="0" style="stop-color:rgb(77,160,216);stop-opacity:1"/><stop offset="1" style="stop-color:rgb(111,217,222);stop-opacity:1"/></linearGradient>
        <linearGradient id="_Linear3" x1="0" y1="0" x2="1" y2="0" gradientUnits="userSpaceOnUse" gradientTransform="matrix(1072.23,0,0,719.576,-176.364,-283.44)"><stop offset="0" style="stop-color:rgb(77,160,216);stop-opacity:1"/><stop offset="1" style="stop-color:rgb(111,217,222);stop-opacity:1"/></linearGradient>
        <linearGradient id="_Linear4" x1="0" y1="0" x2="1" y2="0" gradientUnits="userSpaceOnUse" gradientTransform="matrix(1072.23,0,0,719.576,-176.364,-283.44)"><stop offset="0" style="stop-color:rgb(77,160,216);stop-opacity:1"/><stop offset="1" style="stop-color:rgb(111,217,222);stop-opacity:1"/></linearGradient>
        <linearGradient id="_Linear5" x1="0" y1="0" x2="1" y2="0" gradientUnits="userSpaceOnUse" gradientTransform="matrix(904.341,0,0,702.178,-140.959,-244.719)"><stop offset="0" style="stop-color:rgb(255,108,149);stop-opacity:1"/><stop offset="1" style="stop-color:rgb(255,115,111);stop-opacity:1"/></linearGradient>
        <linearGradient id="_Linear6" x1="0" y1="0" x2="1" y2="0" gradientUnits="userSpaceOnUse" gradientTransform="matrix(904.341,0,0,702.178,-140.959,-244.719)"><stop offset="0" style="stop-color:rgb(255,108,149);stop-opacity:1"/><stop offset="1" style="stop-color:rgb(255,115,111);stop-opacity:1"/></linearGradient>
        <linearGradient id="_Linear7" x1="0" y1="0" x2="1" y2="0" gradientUnits="userSpaceOnUse" gradientTransform="matrix(1072.23,0,0,719.576,-176.364,-283.44)"><stop offset="0" style="stop-color:rgb(77,160,216);stop-opacity:1"/><stop offset="1" style="stop-color:rgb(111,217,222);stop-opacity:1"/></linearGradient>
        <linearGradient id="_Linear8" x1="0" y1="0" x2="1" y2="0" gradientUnits="userSpaceOnUse" gradientTransform="matrix(1072.23,0,0,719.576,-176.364,-283.44)"><stop offset="0" style="stop-color:rgb(77,160,216);stop-opacity:1"/><stop offset="1" style="stop-color:rgb(111,217,222);stop-opacity:1"/></linearGradient>
        <linearGradient id="_Linear9" x1="0" y1="0" x2="1" y2="0" gradientUnits="userSpaceOnUse" gradientTransform="matrix(904.341,0,0,702.178,-140.959,-244.719)"><stop offset="0" style="stop-color:rgb(255,108,149);stop-opacity:1"/><stop offset="1" style="stop-color:rgb(255,115,111);stop-opacity:1"/></linearGradient>
        <linearGradient id="_Linear10" x1="0" y1="0" x2="1" y2="0" gradientUnits="userSpaceOnUse" gradientTransform="matrix(904.341,0,0,702.178,-140.959,-244.719)"><stop offset="0" style="stop-color:rgb(255,108,149);stop-opacity:1"/><stop offset="1" style="stop-color:rgb(255,115,111);stop-opacity:1"/></linearGradient>
        <linearGradient id="_Linear11" x1="0" y1="0" x2="1" y2="0" gradientUnits="userSpaceOnUse" gradientTransform="matrix(904.341,0,0,702.178,-140.959,-244.719)"><stop offset="0" style="stop-color:rgb(255,108,149);stop-opacity:1"/><stop offset="1" style="stop-color:rgb(255,115,111);stop-opacity:1"/></linearGradient>
        <linearGradient id="_Linear12" x1="0" y1="0" x2="1" y2="0" gradientUnits="userSpaceOnUse" gradientTransform="matrix(904.341,0,0,702.178,-140.959,-244.719)"><stop offset="0" style="stop-color:rgb(255,108,149);stop-opacity:1"/><stop offset="1" style="stop-color:rgb(255,115,111);stop-opacity:1"/></linearGradient>
        <linearGradient id="_Linear13" x1="0" y1="0" x2="1" y2="0" gradientUnits="userSpaceOnUse" gradientTransform="matrix(904.341,0,0,702.178,-140.959,-244.719)"><stop offset="0" style="stop-color:rgb(255,108,149);stop-opacity:1"/><stop offset="1" style="stop-color:rgb(255,115,111);stop-opacity:1"/></linearGradient>
        <linearGradient id="_Linear14" x1="0" y1="0" x2="1" y2="0" gradientUnits="userSpaceOnUse" gradientTransform="matrix(1072.23,0,0,719.576,-176.364,-283.44)"><stop offset="0" style="stop-color:rgb(77,160,216);stop-opacity:1"/><stop offset="1" style="stop-color:rgb(111,217,222);stop-opacity:1"/></linearGradient>
        <linearGradient id="_Linear15" x1="0" y1="0" x2="1" y2="0" gradientUnits="userSpaceOnUse" gradientTransform="matrix(1072.23,0,0,719.576,-176.364,-283.44)"><stop offset="0" style="stop-color:rgb(77,160,216);stop-opacity:1"/><stop offset="1" style="stop-color:rgb(111,217,222);stop-opacity:1"/></linearGradient>
        <linearGradient id="_Linear16" x1="0" y1="0" x2="1" y2="0" gradientUnits="userSpaceOnUse" gradientTransform="matrix(1072.23,0,0,719.576,-176.364,-283.44)"><stop offset="0" style="stop-color:rgb(77,160,216);stop-opacity:1"/><stop offset="1" style="stop-color:rgb(111,217,222);stop-opacity:1"/></linearGradient>
        <linearGradient id="_Linear17" x1="0" y1="0" x2="1" y2="0" gradientUnits="userSpaceOnUse" gradientTransform="matrix(904.341,0,0,702.178,-140.959,-244.719)"><stop offset="0" style="stop-color:rgb(255,108,149);stop-opacity:1"/><stop offset="1" style="stop-color:rgb(255,115,111);stop-opacity:1"/></linearGradient>
        <linearGradient id="_Linear18" x1="0" y1="0" x2="1" y2="0" gradientUnits="userSpaceOnUse" gradientTransform="matrix(904.341,0,0,702.178,-140.959,-244.719)"><stop offset="0" style="stop-color:rgb(255,108,149);stop-opacity:1"/><stop offset="1" style="stop-color:rgb(255,115,111);stop-opacity:1"/></linearGradient>
        <linearGradient id="_Linear19" x1="0" y1="0" x2="1" y2="0" gradientUnits="userSpaceOnUse" gradientTransform="matrix(904.341,0,0,702.178,-140.959,-244.719)"><stop offset="0" style="stop-color:rgb(255,108,149);stop-opacity:1"/><stop offset="1" style="stop-color:rgb(255,115,111);stop-opacity:1"/></linearGradient>
        <linearGradient id="_Linear20" x1="0" y1="0" x2="1" y2="0" gradientUnits="userSpaceOnUse" gradientTransform="matrix(904.341,0,0,702.178,-140.959,-244.719)"><stop offset="0" style="stop-color:rgb(255,108,149);stop-opacity:1"/><stop offset="1" style="stop-color:rgb(255,115,111);stop-opacity:1"/></linearGradient>
        <linearGradient id="_Linear21" x1="0" y1="0" x2="1" y2="0" gradientUnits="userSpaceOnUse" gradientTransform="matrix(1072.23,0,0,719.576,-176.364,-283.44)"><stop offset="0" style="stop-color:rgb(77,160,216);stop-opacity:1"/><stop offset="1" style="stop-color:rgb(111,217,222);stop-opacity:1"/></linearGradient>
        <linearGradient id="_Linear22" x1="0" y1="0" x2="1" y2="0" gradientUnits="userSpaceOnUse" gradientTransform="matrix(904.341,0,0,702.178,-140.959,-244.719)"><stop offset="0" style="stop-color:rgb(255,108,149);stop-opacity:1"/><stop offset="1" style="stop-color:rgb(255,115,111);stop-opacity:1"/></linearGradient>
        <linearGradient id="_Linear23" x1="0" y1="0" x2="1" y2="0" gradientUnits="userSpaceOnUse" gradientTransform="matrix(904.341,0,0,702.178,-140.959,-244.719)"><stop offset="0" style="stop-color:rgb(255,108,149);stop-opacity:1"/><stop offset="1" style="stop-color:rgb(255,115,111);stop-opacity:1"/></linearGradient>
        <linearGradient id="_Linear24" x1="0" y1="0" x2="1" y2="0" gradientUnits="userSpaceOnUse" gradientTransform="matrix(904.341,0,0,702.178,-140.959,-244.719)"><stop offset="0" style="stop-color:rgb(255,108,149);stop-opacity:1"/><stop offset="1" style="stop-color:rgb(255,115,111);stop-opacity:1"/></linearGradient>
        <linearGradient id="_Linear25" x1="0" y1="0" x2="1" y2="0" gradientUnits="userSpaceOnUse" gradientTransform="matrix(904.341,0,0,702.178,-140.959,-244.719)"><stop offset="0" style="stop-color:rgb(255,108,149);stop-opacity:1"/><stop offset="1" style="stop-color:rgb(255,115,111);stop-opacity:1"/></linearGradient>
        <linearGradient id="_Linear26" x1="0" y1="0" x2="1" y2="0" gradientUnits="userSpaceOnUse" gradientTransform="matrix(904.341,0,0,702.178,-140.959,-244.719)"><stop offset="0" style="stop-color:rgb(255,108,149);stop-opacity:1"/><stop offset="1" style="stop-color:rgb(255,115,111);stop-opacity:1"/></linearGradient>
        <linearGradient id="_Linear27" x1="0" y1="0" x2="1" y2="0" gradientUnits="userSpaceOnUse" gradientTransform="matrix(904.341,0,0,702.178,-140.959,-244.719)"><stop offset="0" style="stop-color:rgb(255,108,149);stop-opacity:1"/><stop offset="1" style="stop-color:rgb(255,115,111);stop-opacity:1"/></linearGradient>
        <linearGradient id="_Linear28" x1="0" y1="0" x2="1" y2="0" gradientUnits="userSpaceOnUse" gradientTransform="matrix(1072.23,0,0,719.576,-176.364,-283.44)"><stop offset="0" style="stop-color:rgb(77,160,216);stop-opacity:1"/><stop offset="1" style="stop-color:rgb(111,217,222);stop-opacity:1"/></linearGradient>
        <linearGradient id="_Linear29" x1="0" y1="0" x2="1" y2="0" gradientUnits="userSpaceOnUse" gradientTransform="matrix(1072.23,0,0,719.576,-176.364,-283.44)"><stop offset="0" style="stop-color:rgb(77,160,216);stop-opacity:1"/><stop offset="1" style="stop-color:rgb(111,217,222);stop-opacity:1"/></linearGradient>
        <linearGradient id="_Linear30" x1="0" y1="0" x2="1" y2="0" gradientUnits="userSpaceOnUse" gradientTransform="matrix(1072.23,0,0,719.576,-176.364,-283.44)"><stop offset="0" style="stop-color:rgb(77,160,216);stop-opacity:1"/><stop offset="1" style="stop-color:rgb(111,217,222);stop-opacity:1"/></linearGradient>
        <linearGradient id="_Linear31" x1="0" y1="0" x2="1" y2="0" gradientUnits="userSpaceOnUse" gradientTransform="matrix(1072.23,0,0,719.576,-176.364,-283.44)"><stop offset="0" style="stop-color:rgb(77,160,216);stop-opacity:1"/><stop offset="1" style="stop-color:rgb(111,217,222);stop-opacity:1"/></linearGradient>
        <linearGradient id="_Linear32" x1="0" y1="0" x2="1" y2="0" gradientUnits="userSpaceOnUse" gradientTransform="matrix(1072.23,0,0,719.576,-176.364,-283.44)"><stop offset="0" style="stop-color:rgb(77,160,216);stop-opacity:1"/><stop offset="1" style="stop-color:rgb(111,217,222);stop-opacity:1"/></linearGradient>
        <linearGradient id="_Linear33" x1="0" y1="0" x2="1" y2="0" gradientUnits="userSpaceOnUse" gradientTransform="matrix(1072.23,0,0,719.576,-176.364,-283.44)"><stop offset="0" style="stop-color:rgb(77,160,216);stop-opacity:1"/><stop offset="1" style="stop-color:rgb(111,217,222);stop-opacity:1"/></linearGradient>
        <linearGradient id="_Linear34" x1="0" y1="0" x2="1" y2="0" gradientUnits="userSpaceOnUse" gradientTransform="matrix(1072.23,0,0,719.576,-176.364,-283.44)"><stop offset="0" style="stop-color:rgb(77,160,216);stop-opacity:1"/><stop offset="1" style="stop-color:rgb(111,217,222);stop-opacity:1"/></linearGradient>
        <linearGradient id="_Linear35" x1="0" y1="0" x2="1" y2="0" gradientUnits="userSpaceOnUse" gradientTransform="matrix(1072.23,0,0,719.576,-176.364,-283.44)"><stop offset="0" style="stop-color:rgb(77,160,216);stop-opacity:1"/><stop offset="1" style="stop-color:rgb(111,217,222);stop-opacity:1"/></linearGradient>
        <linearGradient id="_Linear36" x1="0" y1="0" x2="1" y2="0" gradientUnits="userSpaceOnUse" gradientTransform="matrix(1072.23,0,0,719.576,-176.364,-283.44)"><stop offset="0" style="stop-color:rgb(77,160,216);stop-opacity:1"/><stop offset="1" style="stop-color:rgb(111,217,222);stop-opacity:1"/></linearGradient>
        <linearGradient id="_Linear37" x1="0" y1="0" x2="1" y2="0" gradientUnits="userSpaceOnUse" gradientTransform="matrix(1072.23,0,0,719.576,-176.364,-283.44)"><stop offset="0" style="stop-color:rgb(77,160,216);stop-opacity:1"/><stop offset="1" style="stop-color:rgb(111,217,222);stop-opacity:1"/></linearGradient>
        <linearGradient id="_Linear38" x1="0" y1="0" x2="1" y2="0" gradientUnits="userSpaceOnUse" gradientTransform="matrix(1072.23,0,0,719.576,-176.364,-283.44)"><stop offset="0" style="stop-color:rgb(77,160,216);stop-opacity:1"/><stop offset="1" style="stop-color:rgb(111,217,222);stop-opacity:1"/></linearGradient>
        <linearGradient id="_Linear39" x1="0" y1="0" x2="1" y2="0" gradientUnits="userSpaceOnUse" gradientTransform="matrix(904.341,0,0,702.178,-140.959,-244.719)"><stop offset="0" style="stop-color:rgb(255,108,149);stop-opacity:1"/><stop offset="1" style="stop-color:rgb(255,115,111);stop-opacity:1"/></linearGradient>
        <linearGradient id="_Linear40" x1="0" y1="0" x2="1" y2="0" gradientUnits="userSpaceOnUse" gradientTransform="matrix(1072.23,0,0,719.576,-176.364,-283.44)"><stop offset="0" style="stop-color:rgb(77,160,216);stop-opacity:1"/><stop offset="1" style="stop-color:rgb(111,217,222);stop-opacity:1"/></linearGradient>
        <linearGradient id="_Linear41" x1="0" y1="0" x2="1" y2="0" gradientUnits="userSpaceOnUse" gradientTransform="matrix(1072.23,0,0,719.576,-176.364,-283.44)"><stop offset="0" style="stop-color:rgb(77,160,216);stop-opacity:1"/><stop offset="1" style="stop-color:rgb(111,217,222);stop-opacity:1"/></linearGradient>
        <linearGradient id="_Linear42" x1="0" y1="0" x2="1" y2="0" gradientUnits="userSpaceOnUse" gradientTransform="matrix(1072.23,0,0,719.576,-176.364,-283.44)"><stop offset="0" style="stop-color:rgb(77,160,216);stop-opacity:1"/><stop offset="1" style="stop-color:rgb(111,217,222);stop-opacity:1"/></linearGradient>
        <linearGradient id="_Linear43" x1="0" y1="0" x2="1" y2="0" gradientUnits="userSpaceOnUse" gradientTransform="matrix(1072.23,0,0,719.576,-176.364,-283.44)"><stop offset="0" style="stop-color:rgb(77,160,216);stop-opacity:1"/><stop offset="1" style="stop-color:rgb(111,217,222);stop-opacity:1"/></linearGradient>
        <linearGradient id="_Linear44" x1="0" y1="0" x2="1" y2="0" gradientUnits="userSpaceOnUse" gradientTransform="matrix(1072.23,0,0,719.576,-176.364,-283.44)"><stop offset="0" style="stop-color:rgb(77,160,216);stop-opacity:1"/><stop offset="1" style="stop-color:rgb(111,217,222);stop-opacity:1"/></linearGradient>
        <linearGradient id="_Linear45" x1="0" y1="0" x2="1" y2="0" gradientUnits="userSpaceOnUse" gradientTransform="matrix(904.341,0,0,702.178,-140.959,-244.719)"><stop offset="0" style="stop-color:rgb(255,108,149);stop-opacity:1"/><stop offset="1" style="stop-color:rgb(255,115,111);stop-opacity:1"/></linearGradient>
        <linearGradient id="_Linear46" x1="0" y1="0" x2="1" y2="0" gradientUnits="userSpaceOnUse" gradientTransform="matrix(904.341,0,0,702.178,-140.959,-244.719)"><stop offset="0" style="stop-color:rgb(255,108,149);stop-opacity:1"/><stop offset="1" style="stop-color:rgb(255,115,111);stop-opacity:1"/></linearGradient>
        <linearGradient id="_Linear47" x1="0" y1="0" x2="1" y2="0" gradientUnits="userSpaceOnUse" gradientTransform="matrix(904.341,0,0,702.178,-140.959,-244.719)"><stop offset="0" style="stop-color:rgb(255,108,149);stop-opacity:1"/><stop offset="1" style="stop-color:rgb(255,115,111);stop-opacity:1"/></linearGradient>
        <linearGradient id="_Linear48" x1="0" y1="0" x2="1" y2="0" gradientUnits="userSpaceOnUse" gradientTransform="matrix(904.341,0,0,702.178,-140.959,-244.719)"><stop offset="0" style="stop-color:rgb(255,108,149);stop-opacity:1"/><stop offset="1" style="stop-color:rgb(255,115,111);stop-opacity:1"/></linearGradient>
        <linearGradient id="_Linear49" x1="0" y1="0" x2="1" y2="0" gradientUnits="userSpaceOnUse" gradientTransform="matrix(904.341,0,0,702.178,-140.959,-244.719)"><stop offset="0" style="stop-color:rgb(255,108,149);stop-opacity:1"/><stop offset="1" style="stop-color:rgb(255,115,111);stop-opacity:1"/></linearGradient>
        <linearGradient id="_Linear50" x1="0" y1="0" x2="1" y2="0" gradientUnits="userSpaceOnUse" gradientTransform="matrix(904.341,0,0,702.178,-140.959,-244.719)"><stop offset="0" style="stop-color:rgb(255,108,149);stop-opacity:1"/><stop offset="1" style="stop-color:rgb(255,115,111);stop-opacity:1"/></linearGradient>
        <linearGradient id="_Linear51" x1="0" y1="0" x2="1" y2="0" gradientUnits="userSpaceOnUse" gradientTransform="matrix(904.341,0,0,702.178,-140.959,-244.719)"><stop offset="0" style="stop-color:rgb(255,108,149);stop-opacity:1"/><stop offset="1" style="stop-color:rgb(255,115,111);stop-opacity:1"/></linearGradient>
    </defs>
</svg>
