<?xml version="1.0" encoding="UTF-8" standalone="no"?>
<!DOCTYPE svg PUBLIC "-//W3C//DTD SVG 1.1//EN" "http://www.w3.org/Graphics/SVG/1.1/DTD/svg11.dtd">
<svg width="100%" height="100%" viewBox="0 0 1001 302" version="1.1" xmlns="http://www.w3.org/2000/svg" xmlns:xlink="http://www.w3.org/1999/xlink" xml:space="preserve" xmlns:serif="http://www.serif.com/" style="fill-rule:evenodd;clip-rule:evenodd;stroke-linejoin:round;stroke-miterlimit:2;">
    <g transform="matrix(1,0,0,1,-4.96599,-770.015)">
        <g id="uLoop-light" transform="matrix(0.625433,0,0,0.335145,4.96599,770.015)">
            <rect x="0" y="0" width="1600" height="900" style="fill:none;"/>
            <g transform="matrix(1.59889,0,0,2.98379,-17.4554,-7.80472)">
                <g transform="matrix(297,0,0,297,9.83947,218.409)">
                    <path d="M0.07,-0.519L0.208,-0.519L0.208,-0.283C0.208,-0.239 0.21,-0.204 0.214,-0.18C0.219,-0.155 0.229,-0.135 0.245,-0.12C0.261,-0.104 0.281,-0.097 0.303,-0.097C0.327,-0.097 0.347,-0.105 0.364,-0.121C0.381,-0.137 0.392,-0.156 0.397,-0.179C0.402,-0.201 0.404,-0.236 0.404,-0.281L0.404,-0.519L0.542,-0.519L0.542,-0L0.415,-0L0.415,-0.063C0.389,-0.013 0.354,0.012 0.311,0.012C0.264,0.012 0.229,-0.013 0.208,-0.063L0.208,0.197L0.07,0.197L0.07,-0.519Z" style="fill-rule:nonzero;"/>
                </g>
                <g transform="matrix(297,0,0,297,191.549,218.409)">
                    <path d="M0.207,-0.588L0.207,-0.113L0.503,-0.113C0.506,-0.113 0.509,-0.111 0.512,-0.108C0.515,-0.105 0.517,-0.102 0.517,-0.099L0.517,-0.013C0.517,-0.01 0.516,-0.007 0.513,-0.004C0.51,-0.001 0.507,-0 0.504,-0L0.084,-0C0.08,-0 0.077,-0.001 0.076,-0.003C0.074,-0.006 0.073,-0.009 0.073,-0.012L0.073,-0.588C0.073,-0.591 0.074,-0.594 0.076,-0.597C0.078,-0.6 0.081,-0.601 0.084,-0.601L0.196,-0.601C0.199,-0.601 0.202,-0.6 0.204,-0.597C0.206,-0.594 0.207,-0.591 0.207,-0.588Z" style="fill-rule:nonzero;"/>
                </g>
                <g transform="matrix(297,0,0,297,342.425,218.409)">
                    <path d="M0.371,-0.61L0.373,-0.61C0.465,-0.61 0.543,-0.581 0.607,-0.523C0.671,-0.465 0.703,-0.391 0.703,-0.3C0.703,-0.208 0.671,-0.133 0.607,-0.076C0.544,-0.019 0.465,0.009 0.372,0.009C0.279,0.009 0.2,-0.019 0.137,-0.076C0.073,-0.133 0.041,-0.208 0.041,-0.3C0.041,-0.391 0.073,-0.465 0.137,-0.523C0.201,-0.581 0.279,-0.61 0.371,-0.61ZM0.512,-0.442C0.474,-0.478 0.428,-0.496 0.373,-0.496C0.318,-0.496 0.272,-0.478 0.234,-0.442C0.196,-0.406 0.177,-0.359 0.177,-0.3C0.177,-0.241 0.196,-0.194 0.234,-0.158C0.272,-0.122 0.318,-0.104 0.373,-0.104C0.428,-0.104 0.474,-0.122 0.512,-0.158C0.55,-0.194 0.569,-0.241 0.569,-0.3C0.569,-0.359 0.55,-0.406 0.512,-0.442Z" style="fill-rule:nonzero;"/>
                </g>
                <g transform="matrix(297,0,0,297,562.799,218.409)">
                    <path d="M0.371,-0.61L0.373,-0.61C0.465,-0.61 0.543,-0.581 0.607,-0.523C0.671,-0.465 0.703,-0.391 0.703,-0.3C0.703,-0.208 0.671,-0.133 0.607,-0.076C0.544,-0.019 0.465,0.009 0.372,0.009C0.279,0.009 0.2,-0.019 0.137,-0.076C0.073,-0.133 0.041,-0.208 0.041,-0.3C0.041,-0.391 0.073,-0.465 0.137,-0.523C0.201,-0.581 0.279,-0.61 0.371,-0.61ZM0.512,-0.442C0.474,-0.478 0.428,-0.496 0.373,-0.496C0.318,-0.496 0.272,-0.478 0.234,-0.442C0.196,-0.406 0.177,-0.359 0.177,-0.3C0.177,-0.241 0.196,-0.194 0.234,-0.158C0.272,-0.122 0.318,-0.104 0.373,-0.104C0.428,-0.104 0.474,-0.122 0.512,-0.158C0.55,-0.194 0.569,-0.241 0.569,-0.3C0.569,-0.359 0.55,-0.406 0.512,-0.442Z" style="fill-rule:nonzero;"/>
                </g>
                <g transform="matrix(297,0,0,297,783.173,218.409)">
                    <path d="M0.195,-0L0.084,-0C0.08,-0 0.077,-0.001 0.076,-0.003C0.074,-0.006 0.073,-0.009 0.073,-0.012L0.073,-0.588C0.073,-0.591 0.074,-0.594 0.076,-0.597C0.078,-0.6 0.081,-0.601 0.084,-0.601L0.34,-0.601C0.414,-0.601 0.474,-0.581 0.519,-0.54C0.565,-0.499 0.588,-0.445 0.588,-0.377C0.588,-0.309 0.565,-0.255 0.518,-0.215C0.471,-0.175 0.411,-0.155 0.338,-0.155L0.206,-0.155L0.206,-0.013C0.206,-0.01 0.205,-0.007 0.203,-0.004C0.201,-0.001 0.198,-0 0.195,-0ZM0.329,-0.485L0.208,-0.485L0.208,-0.261L0.329,-0.261C0.368,-0.261 0.399,-0.271 0.42,-0.292C0.442,-0.313 0.453,-0.341 0.453,-0.374C0.453,-0.408 0.442,-0.435 0.419,-0.455C0.396,-0.475 0.366,-0.485 0.329,-0.485Z" style="fill-rule:nonzero;"/>
                </g>
            </g>
        </g>
    </g>
</svg>
