<?xml version="1.0" encoding="UTF-8" standalone="no"?>
<!DOCTYPE svg PUBLIC "-//W3C//DTD SVG 1.1//EN" "http://www.w3.org/Graphics/SVG/1.1/DTD/svg11.dtd">
<svg width="100%" height="100%" viewBox="0 0 860 221" version="1.1" xmlns="http://www.w3.org/2000/svg" xmlns:xlink="http://www.w3.org/1999/xlink" xml:space="preserve" xmlns:serif="http://www.serif.com/" style="fill-rule:evenodd;clip-rule:evenodd;stroke-linejoin:round;stroke-miterlimit:2;">
    <g transform="matrix(1,0,0,1,0,-510.038)">
        <g id="CLiCK-light" transform="matrix(0.53703,0,0,0.244998,0,510.038)">
            <rect x="0" y="0" width="1600" height="900" style="fill:none;"/>
            <g transform="matrix(1.86209,0,0,4.08167,-20.3288,-10.6765)">
                <g transform="matrix(297,0,0,297,9.83947,201.83)">
                    <path d="M0.646,-0.358L0.546,-0.357C0.537,-0.357 0.531,-0.362 0.529,-0.373C0.524,-0.408 0.506,-0.437 0.477,-0.46C0.446,-0.483 0.409,-0.495 0.366,-0.495C0.313,-0.495 0.269,-0.477 0.233,-0.44C0.197,-0.403 0.179,-0.356 0.179,-0.299C0.179,-0.242 0.197,-0.195 0.232,-0.158C0.267,-0.121 0.311,-0.103 0.366,-0.103C0.411,-0.103 0.448,-0.113 0.477,-0.133C0.506,-0.153 0.523,-0.18 0.528,-0.214C0.53,-0.225 0.536,-0.231 0.547,-0.231L0.647,-0.231C0.658,-0.231 0.664,-0.226 0.664,-0.216C0.664,-0.151 0.636,-0.097 0.58,-0.054C0.525,-0.011 0.453,0.01 0.364,0.01C0.271,0.01 0.194,-0.019 0.133,-0.076C0.071,-0.134 0.04,-0.209 0.04,-0.3C0.04,-0.391 0.071,-0.465 0.133,-0.523C0.195,-0.581 0.272,-0.61 0.364,-0.61C0.455,-0.61 0.527,-0.586 0.581,-0.538C0.635,-0.49 0.662,-0.434 0.662,-0.371C0.662,-0.362 0.657,-0.358 0.646,-0.358Z" style="fill-rule:nonzero;"/>
                </g>
                <g transform="matrix(297,0,0,297,218.333,201.83)">
                    <path d="M0.207,-0.588L0.207,-0.113L0.503,-0.113C0.506,-0.113 0.509,-0.111 0.512,-0.108C0.515,-0.105 0.517,-0.102 0.517,-0.099L0.517,-0.013C0.517,-0.01 0.516,-0.007 0.513,-0.004C0.51,-0.001 0.507,-0 0.504,-0L0.084,-0C0.08,-0 0.077,-0.001 0.076,-0.003C0.074,-0.006 0.073,-0.009 0.073,-0.012L0.073,-0.588C0.073,-0.591 0.074,-0.594 0.076,-0.597C0.078,-0.6 0.081,-0.601 0.084,-0.601L0.196,-0.601C0.199,-0.601 0.202,-0.6 0.204,-0.597C0.206,-0.594 0.207,-0.591 0.207,-0.588Z" style="fill-rule:nonzero;"/>
                </g>
                <g transform="matrix(297,0,0,297,377.822,201.83)">
                    <path d="M0.176,-0.393L0.176,-0.017C0.176,-0.014 0.174,-0.01 0.17,-0.006C0.166,-0.002 0.162,-0 0.159,-0L0.065,-0C0.062,-0 0.058,-0.002 0.054,-0.006C0.05,-0.01 0.048,-0.014 0.048,-0.017L0.048,-0.393C0.048,-0.396 0.05,-0.4 0.054,-0.404C0.058,-0.408 0.062,-0.41 0.065,-0.41L0.159,-0.41C0.162,-0.41 0.166,-0.408 0.17,-0.404C0.174,-0.4 0.176,-0.396 0.176,-0.393ZM0.059,-0.501C0.045,-0.513 0.038,-0.528 0.038,-0.546C0.038,-0.564 0.045,-0.579 0.059,-0.591C0.073,-0.603 0.091,-0.609 0.113,-0.609C0.135,-0.609 0.153,-0.603 0.167,-0.591C0.181,-0.579 0.188,-0.564 0.188,-0.546C0.188,-0.528 0.181,-0.513 0.167,-0.501C0.153,-0.489 0.135,-0.483 0.113,-0.483C0.091,-0.483 0.073,-0.489 0.059,-0.501Z" style="fill-rule:nonzero;"/>
                </g>
                <g transform="matrix(297,0,0,297,444.35,201.83)">
                    <path d="M0.646,-0.358L0.546,-0.357C0.537,-0.357 0.531,-0.362 0.529,-0.373C0.524,-0.408 0.506,-0.437 0.477,-0.46C0.446,-0.483 0.409,-0.495 0.366,-0.495C0.313,-0.495 0.269,-0.477 0.233,-0.44C0.197,-0.403 0.179,-0.356 0.179,-0.299C0.179,-0.242 0.197,-0.195 0.232,-0.158C0.267,-0.121 0.311,-0.103 0.366,-0.103C0.411,-0.103 0.448,-0.113 0.477,-0.133C0.506,-0.153 0.523,-0.18 0.528,-0.214C0.53,-0.225 0.536,-0.231 0.547,-0.231L0.647,-0.231C0.658,-0.231 0.664,-0.226 0.664,-0.216C0.664,-0.151 0.636,-0.097 0.58,-0.054C0.525,-0.011 0.453,0.01 0.364,0.01C0.271,0.01 0.194,-0.019 0.133,-0.076C0.071,-0.134 0.04,-0.209 0.04,-0.3C0.04,-0.391 0.071,-0.465 0.133,-0.523C0.195,-0.581 0.272,-0.61 0.364,-0.61C0.455,-0.61 0.527,-0.586 0.581,-0.538C0.635,-0.49 0.662,-0.434 0.662,-0.371C0.662,-0.362 0.657,-0.358 0.646,-0.358Z" style="fill-rule:nonzero;"/>
                </g>
                <g transform="matrix(297,0,0,297,652.844,201.83)">
                    <path d="M0.649,-0.582L0.389,-0.33L0.662,-0.017C0.665,-0.014 0.667,-0.011 0.667,-0.008C0.667,-0.003 0.664,-0.001 0.658,-0.001L0.514,-0.001C0.505,-0.001 0.498,-0.004 0.493,-0.01L0.295,-0.238L0.207,-0.153L0.207,-0.013C0.207,-0.01 0.206,-0.007 0.204,-0.004C0.202,-0.001 0.199,-0 0.196,-0L0.084,-0C0.081,-0 0.078,-0.001 0.076,-0.004C0.074,-0.007 0.073,-0.01 0.073,-0.013L0.073,-0.589C0.073,-0.592 0.074,-0.595 0.076,-0.598C0.078,-0.601 0.081,-0.602 0.084,-0.602L0.196,-0.602C0.199,-0.602 0.202,-0.601 0.204,-0.598C0.206,-0.595 0.207,-0.592 0.207,-0.589L0.207,-0.324L0.209,-0.324C0.219,-0.335 0.232,-0.348 0.247,-0.363L0.479,-0.59C0.486,-0.597 0.495,-0.601 0.505,-0.601L0.647,-0.601C0.653,-0.601 0.656,-0.599 0.656,-0.594C0.656,-0.591 0.654,-0.587 0.649,-0.582Z" style="fill-rule:nonzero;"/>
                </g>
            </g>
        </g>
    </g>
</svg>
